<?xml version="1.0" encoding="UTF-8" standalone="no"?>
<svg
   id="svg2"
   height="413.43515pt"
   width="978.63348pt"
   version="1.1"
   viewBox="0 0 978.63196 413.43801"
   sodipodi:docname="logo.svg"
   inkscape:version="1.1.2 (0a00cf5339, 2022-02-04)"
   inkscape:export-filename="/home/bigmac/Dropbox/code/lui/logo/lui_beaver.png"
   inkscape:export-xdpi="90"
   inkscape:export-ydpi="90"
   xmlns:inkscape="http://www.inkscape.org/namespaces/inkscape"
   xmlns:sodipodi="http://sodipodi.sourceforge.net/DTD/sodipodi-0.dtd"
   xmlns:xlink="http://www.w3.org/1999/xlink"
   xmlns="http://www.w3.org/2000/svg"
   xmlns:svg="http://www.w3.org/2000/svg">
  <defs
     id="defs14">
    <inkscape:path-effect
       effect="perspective-envelope"
       up_left_point="918.40133,-22.333903"
       up_right_point="1112.4018,-22.333903"
       down_left_point="918.40133,128.06685"
       down_right_point="1112.4018,128.06685"
       id="path-effect38474"
       is_visible="true"
       lpeversion="1"
       deform_type="perspective"
       horizontal_mirror="false"
       vertical_mirror="false"
       overflow_perspective="false" />
    <linearGradient
       inkscape:collect="always"
       xlink:href="#linearGradient7265"
       id="linearGradient7271"
       x1="-628.14142"
       y1="503.4324"
       x2="-375.09195"
       y2="502.71811"
       gradientUnits="userSpaceOnUse"
       gradientTransform="rotate(-3.4186763,-481.35702,550.12395)" />
    <linearGradient
       inkscape:collect="always"
       id="linearGradient7265">
      <stop
         style="stop-color:#502d16;stop-opacity:1;"
         offset="0"
         id="stop7267" />
      <stop
         style="stop-color:#502d16;stop-opacity:0;"
         offset="1"
         id="stop7269" />
    </linearGradient>
    <linearGradient
       inkscape:collect="always"
       xlink:href="#linearGradient7265"
       id="linearGradient7263"
       x1="-625.0481"
       y1="486.47128"
       x2="-368.53064"
       y2="485.04272"
       gradientUnits="userSpaceOnUse"
       gradientTransform="rotate(-3.4186763,-481.35702,550.12395)" />
    <linearGradient
       inkscape:collect="always"
       xlink:href="#linearGradient7265"
       id="linearGradient7255"
       x1="-635.74316"
       y1="472.49585"
       x2="-389.65811"
       y2="474.6387"
       gradientUnits="userSpaceOnUse"
       gradientTransform="rotate(-3.4186763,-481.35702,550.12395)" />
    <linearGradient
       inkscape:collect="always"
       xlink:href="#linearGradient7265"
       id="linearGradient7279"
       x1="-630.79187"
       y1="519.50531"
       x2="-369.2063"
       y2="512.7196"
       gradientUnits="userSpaceOnUse" />
    <linearGradient
       inkscape:collect="always"
       xlink:href="#linearGradient7265"
       id="linearGradient7287"
       x1="-613.01129"
       y1="534.05524"
       x2="-351.47125"
       y2="505.12668"
       gradientUnits="userSpaceOnUse" />
    <linearGradient
       inkscape:collect="always"
       xlink:href="#linearGradient7265"
       id="linearGradient7303"
       x1="-550.78748"
       y1="567.90125"
       x2="-375.27414"
       y2="501.8298"
       gradientUnits="userSpaceOnUse"
       gradientTransform="matrix(0.80006529,0,0,0.79990673,700.34223,-506.41259)" />
    <linearGradient
       inkscape:collect="always"
       xlink:href="#linearGradient7265"
       id="linearGradient7295"
       x1="-567.89032"
       y1="547.90387"
       x2="-378.15149"
       y2="493.61816"
       gradientUnits="userSpaceOnUse"
       gradientTransform="matrix(0.80006529,0,0,0.79990673,700.34223,-506.41259)" />
  </defs>
  <sodipodi:namedview
     id="namedview12"
     pagecolor="#ffffff"
     bordercolor="#666666"
     borderopacity="1.0"
     inkscape:pageshadow="2"
     inkscape:pageopacity="0.0"
     inkscape:pagecheckerboard="0"
     inkscape:document-units="pt"
     showgrid="false"
     fit-margin-top="0"
     fit-margin-left="0"
     fit-margin-right="0"
     fit-margin-bottom="0"
     inkscape:zoom="0.61452475"
     inkscape:cx="638.70495"
     inkscape:cy="462.95938"
     inkscape:window-width="1274"
     inkscape:window-height="1364"
     inkscape:window-x="0"
     inkscape:window-y="0"
     inkscape:window-maximized="1"
     inkscape:current-layer="svg2" />
  <g
     id="g1504"
     transform="matrix(2.043105,0,0,2.043105,-166.64541,314.04612)">
    <text
       xml:space="preserve"
       style="font-style:normal;font-weight:normal;font-size:9.60007px;line-height:0%;font-family:sans-serif;letter-spacing:0px;word-spacing:0px;fill:#000000;fill-opacity:1;stroke:none;stroke-width:0.800006px;stroke-linecap:butt;stroke-linejoin:miter;stroke-opacity:1"
       x="81.562645"
       y="-153.71022"
       id="text4297"><tspan
         sodipodi:role="line"
         id="tspan4299"
         x="81.562645"
         y="-153.71022"
         style="font-size:32.0002px;line-height:1.25;font-family:sans-serif;stroke-width:0.800006px"> </tspan></text>
    <g
       id="g8439"
       transform="matrix(0.80000553,0,0,0.80000553,699.16921,-500.46962)">
      <path
         style="opacity:1;fill:#784421;fill-opacity:1;fill-rule:nonzero;stroke:#502d16;stroke-width:1.5;stroke-miterlimit:4;stroke-dasharray:none;stroke-opacity:1"
         d="m -493.74146,500.39571 c -1.48091,-0.18228 -2.96197,-0.15051 -4.44214,-0.0121 -3.42132,0.31986 -38.5351,2.87656 -80.61111,5.94265 -42.07603,3.06608 -90.93195,6.62515 -121.25764,8.89696 -8.07402,0.60486 -15.07671,0.88516 -20.26702,1.0638 -2.59516,0.0893 -4.73807,0.15421 -6.32341,0.21971 -1.58535,0.0655 -2.76065,0.18374 -2.82051,0.19762 -18.73437,4.34241 -29.87161,26.53916 -24.47091,49.83923 5.39537,23.27713 25.15171,35.7312 44.08998,33.96533 1.97705,-0.18434 5.4692,-1.17894 9.27978,-2.37496 3.81057,-1.19601 7.99303,-2.58309 11.70218,-3.52882 29.45721,-7.51075 77.7314,-24.83954 119.08893,-40.55443 20.67877,-7.85746 39.63902,-15.31326 53.68339,-20.94088 7.02219,-2.81381 12.816,-5.17142 16.97875,-6.89214 2.08138,-0.86037 3.75536,-1.56206 4.96771,-2.0804 1.21235,-0.51835 2.04479,-0.90131 2.1311,-0.94751 2.62826,-1.40687 4.22498,-2.32323 5.27259,-3.14374 1.04761,-0.8205 1.60039,-1.5242 2.33455,-2.82125 0.5153,-0.91039 0.91391,-1.45725 1.11345,-2.6638 0.19955,-1.20655 0.16017,-3.13817 -0.60971,-6.45964 -0.60708,-2.61912 -1.4388,-3.86598 -2.29713,-4.65117 -0.85832,-0.7852 -1.86347,-1.15353 -3.06784,-1.74033 -1.51288,-0.73712 -2.99472,-1.13188 -4.47499,-1.31411 z"
         id="path8317"
         inkscape:connector-curvature="0" />
      <ellipse
         transform="matrix(0.99936557,-0.03561553,0.11995763,0.99277901,0,0)"
         style="opacity:1;fill:#ffccaa;fill-opacity:1;fill-rule:nonzero;stroke:#502d16;stroke-width:1.70081;stroke-miterlimit:4;stroke-dasharray:none;stroke-opacity:1"
         id="ellipse4489"
         cx="-783.46973"
         cy="534.67841"
         rx="32.386551"
         ry="39.811977" />
      <ellipse
         ry="35.176899"
         rx="28.615971"
         cy="535.24872"
         cx="-783.51813"
         id="ellipse5218"
         style="opacity:1;fill:none;fill-opacity:1;fill-rule:nonzero;stroke:#ad7045;stroke-width:0.885161;stroke-miterlimit:4;stroke-dasharray:none;stroke-opacity:1"
         transform="matrix(0.99936557,-0.03561553,0.11995763,0.99277901,0,0)" />
      <ellipse
         transform="matrix(0.99936557,-0.03561553,0.11995763,0.99277901,0,0)"
         style="opacity:1;fill:none;fill-opacity:1;fill-rule:nonzero;stroke:#ffb380;stroke-width:1.00179;stroke-miterlimit:4;stroke-dasharray:none;stroke-opacity:1"
         id="ellipse5220"
         cx="-784.89697"
         cy="535.95135"
         rx="19.13863"
         ry="23.52664" />
      <ellipse
         transform="rotate(-16.374102)"
         style="opacity:0.47;fill:#e9c6af;fill-opacity:1;fill-rule:nonzero;stroke:#deaa87;stroke-width:0.638328;stroke-miterlimit:4;stroke-dasharray:none;stroke-opacity:1"
         id="ellipse7234"
         cx="-849.90955"
         cy="333.91064"
         rx="6.6094074"
         ry="8.9308357" />
    </g>
    <path
       style="fill:#000000;fill-opacity:0.257627;fill-rule:evenodd;stroke:none;stroke-width:0.800006px;stroke-linecap:butt;stroke-linejoin:miter;stroke-opacity:1"
       d="m 141.88987,-81.290794 c 27.75497,17.394368 5.84737,53.761147 34.91488,8.838869 0.50124,-0.688765 -16.70131,5.589398 -17.39007,5.088163 -5.43683,-3.95654 -3.10239,-6.666958 -8.35231,-10.487473 -3.14032,-2.285303 -0.53657,-5.372245 -9.1725,-3.439559 z"
       id="path7447"
       inkscape:connector-curvature="0"
       sodipodi:nodetypes="ccssc" />
    <path
       style="fill:#000000;fill-opacity:0.257627;fill-rule:evenodd;stroke:none;stroke-width:0.800006px;stroke-linecap:butt;stroke-linejoin:miter;stroke-opacity:1"
       d="m 133.03355,-88.466956 c 8.48037,3.048629 12.56197,7.830134 15.898,12.49043 0.0217,0.03032 -1.69619,-10.763114 -3.32495,-12.596215 -0.73708,-1.006655 -12.13549,0.199202 -12.57305,0.105785 z"
       id="path8220"
       inkscape:connector-curvature="0"
       sodipodi:nodetypes="cscc" />
    <g
       id="g8428"
       transform="matrix(0.80000553,0,0,0.80000553,699.16921,-500.46962)">
      <g
         transform="rotate(-3.4186763,-481.35702,550.12395)"
         id="g7370">
        <path
           sodipodi:type="inkscape:offset"
           inkscape:radius="-2.1253464"
           inkscape:original="M -666.40039 447.9375 C -686.55808 448.4345 -702.4078 468.7317 -701.80273 493.27148 C -701.19766 517.81125 -684.36667 537.30171 -664.20898 536.80469 C -658.84084 536.67233 -439.7293 506.46022 -434.70117 504.96875 C -428.95712 503.2649 -427.48019 502.63452 -425.38281 500.23438 C -424.11284 498.78108 -422.52382 497.46625 -422.69727 490.43164 C -422.83948 484.66378 -425.26322 483.50373 -427.21484 482 C -430.14562 479.74183 -433.30363 478.95976 -436.39062 478.61914 C -442.16256 477.98226 -562.66144 462.72999 -628.51562 453.99219 C -655.18655 450.45338 -664.00646 447.8785 -666.40039 447.9375 z "
           style="opacity:1;fill:#784421;fill-opacity:1;fill-rule:nonzero;stroke:#502d16;stroke-width:1.5;stroke-miterlimit:4;stroke-dasharray:none;stroke-opacity:1"
           id="path8309"
           d="m -666.34766,450.0625 c -18.75973,0.46253 -33.91189,19.55965 -33.33007,43.15625 0.58181,23.59658 16.65621,41.92349 35.41601,41.46094 -0.0734,0.002 1.31522,-0.12008 3.20508,-0.34766 1.88986,-0.22758 4.51739,-0.56005 7.77148,-0.98047 6.50819,-0.84082 15.52542,-2.03773 26.21094,-3.47461 21.37105,-2.87375 49.41853,-6.70823 77.45508,-10.58593 28.03655,-3.87771 56.06306,-7.79834 77.39062,-10.8418 10.66379,-1.52173 19.6546,-2.82321 26.12891,-3.79102 3.23716,-0.4839 5.84509,-0.88464 7.71289,-1.18554 0.9339,-0.15045 1.68386,-0.27599 2.22461,-0.37305 0.54075,-0.0971 0.97019,-0.20142 0.85742,-0.16797 2.85113,-0.84573 4.57064,-1.41957 5.6836,-1.97266 1.11296,-0.55308 1.69197,-1.03968 2.63867,-2.12304 0.71502,-0.81824 1.1087,-1.15417 1.5,-2.17188 0.39129,-1.01771 0.74286,-2.82552 0.66015,-6.17968 -0.0639,-2.59002 -0.5883,-3.80661 -1.17773,-4.6211 -0.58943,-0.81449 -1.40826,-1.32947 -2.51172,-2.17969 -2.534,-1.95245 -5.21978,-2.63211 -8.11133,-2.95117 -3.12177,-0.34446 -34.48844,-4.2961 -73.56836,-9.28125 -39.07991,-4.98515 -85.66871,-10.98164 -118.60351,-15.35156 -13.37181,-1.77423 -22.28865,-3.3111 -28.15235,-4.39453 -2.93184,-0.54172 -5.10387,-0.9706 -6.65625,-1.25391 -1.55237,-0.2833 -2.55844,-0.39325 -2.74414,-0.38867 z" />
        <ellipse
           style="opacity:1;fill:#ffccaa;fill-opacity:1;fill-rule:nonzero;stroke:#502d16;stroke-width:1.68107;stroke-miterlimit:4;stroke-dasharray:none;stroke-opacity:1"
           id="ellipse5103"
           cx="-679.29376"
           cy="478.7807"
           rx="32.002338"
           ry="39.360512"
           transform="matrix(0.99979851,-0.02007317,0.03003691,0.99954879,0,0)" />
        <ellipse
           transform="matrix(0.99978104,-0.02092548,0.02881401,0.99958479,0,0)"
           ry="34.236561"
           rx="26.703442"
           cy="478.71906"
           cx="-679.12573"
           id="ellipse5187"
           style="opacity:1;fill:none;fill-opacity:1;fill-rule:nonzero;stroke:#ad7045;stroke-width:1.17371;stroke-miterlimit:4;stroke-dasharray:none;stroke-opacity:1" />
        <ellipse
           style="opacity:1;fill:none;fill-opacity:1;fill-rule:nonzero;stroke:#ffb380;stroke-width:1.02963;stroke-miterlimit:4;stroke-dasharray:none;stroke-opacity:1"
           id="ellipse5193"
           cx="-678.80927"
           cy="478.27994"
           rx="16.196228"
           ry="22.789984"
           transform="matrix(0.99973621,-0.02296748,0.02625289,0.99965533,0,0)" />
        <ellipse
           style="opacity:0.47;fill:#e9c6af;fill-opacity:1;fill-rule:nonzero;stroke:#deaa87;stroke-width:0.678407;stroke-miterlimit:4;stroke-dasharray:none;stroke-opacity:1"
           id="path7232"
           cx="-667.05096"
           cy="493.46429"
           rx="7.4822249"
           ry="8.9107962" />
      </g>
      <path
         style="opacity:0.47;fill:none;fill-rule:evenodd;stroke:url(#linearGradient7271);stroke-width:1;stroke-linecap:butt;stroke-linejoin:miter;stroke-miterlimit:4;stroke-dasharray:none;stroke-opacity:1"
         d="m -629.68875,527.34946 c 58.72396,-18.901 133.30486,-18.86592 197.18859,-35.28983"
         id="path7194"
         inkscape:connector-curvature="0"
         sodipodi:nodetypes="cc" />
      <path
         sodipodi:nodetypes="cc"
         inkscape:connector-curvature="0"
         id="path7196"
         d="m -628.42281,497.64425 c 60.43416,-6.94943 132.40103,-5.15237 194.057,-11.6158"
         style="opacity:0.47;fill:none;fill-rule:evenodd;stroke:url(#linearGradient7263);stroke-width:1;stroke-linecap:butt;stroke-linejoin:miter;stroke-miterlimit:4;stroke-dasharray:none;stroke-opacity:1" />
      <path
         style="opacity:0.47;fill:none;fill-rule:evenodd;stroke:url(#linearGradient7255);stroke-width:1;stroke-linecap:butt;stroke-linejoin:miter;stroke-miterlimit:4;stroke-dasharray:none;stroke-opacity:1"
         d="m -640.57536,473.36398 c 60.58521,2.15049 138.45422,4.95061 201.37041,7.29841"
         id="path7198"
         inkscape:connector-curvature="0"
         sodipodi:nodetypes="cc" />
    </g>
    <path
       sodipodi:nodetypes="cssssc"
       inkscape:connector-curvature="0"
       id="path8199"
       d="m 159.67441,-42.307085 c -1.62209,8.864517 -4.9014,13.379053 -8.95402,17.431673 -0.0263,0.02632 11.35111,-2.801164 13.06942,-4.519472 1.31884,-1.318849 0.35925,-6.122426 0.35925,-8.194904 0,-0.501012 0.31882,-2.824052 0,-3.142878 -0.34769,-0.34769 -3.35554,-1.714068 -4.47465,-1.574419 z"
       style="fill:#000000;fill-opacity:0.257627;fill-rule:evenodd;stroke:none;stroke-width:0.800006px;stroke-linecap:butt;stroke-linejoin:miter;stroke-opacity:1" />
    <g
       id="g8414"
       transform="matrix(0.80000553,0,0,0.80000553,699.16921,-500.46962)">
      <path
         style="opacity:1;fill:#784421;fill-opacity:1;fill-rule:nonzero;stroke:#502d16;stroke-width:1.5;stroke-miterlimit:4;stroke-dasharray:none;stroke-opacity:1"
         d="m -424.10938,494.73242 c -1.5816,-0.0103 -3.11564,0.20746 -4.61328,0.52539 -3.32909,0.70671 -40.71292,8.08184 -84.27929,16.65235 -43.56637,8.5705 -93.26945,18.32545 -121.10157,23.76367 -6.05926,1.18394 -11.292,1.90146 -15.17968,2.38476 -2.41942,0.32749 -4.57359,1.01973 -6.93415,1.4947 -18.7029,6.69439 -27.77655,29.33758 -19.57562,52.24944 8.20136,22.9131 30.05367,35.94581 48.74414,29.25586 0.23002,-0.0823 1.34916,-0.58388 3.08008,-1.39648 1.73092,-0.8126 4.12364,-1.95195 7.08398,-3.37305 5.92069,-2.84219 14.10972,-6.80842 23.80665,-11.52539 19.39384,-9.43393 44.82385,-21.87413 70.23046,-34.35156 25.40662,-12.47743 50.78984,-24.99046 70.08985,-34.57227 9.65,-4.7909 17.77885,-8.84978 23.6289,-11.80273 2.92503,-1.47648 5.28142,-2.67585 6.97071,-3.55273 0.84464,-0.43845 1.52163,-0.79656 2.01953,-1.06641 0.49789,-0.26985 0.83304,-0.46576 0.91601,-0.52344 2.45585,-1.70707 3.97086,-2.81942 5,-3.83789 1.02915,-1.01846 1.59141,-1.93844 2.19727,-3.375 0.38553,-0.91415 0.80403,-1.69934 0.87109,-3.09766 0.0671,-1.39831 -0.23284,-3.4307 -1.40625,-6.70898 -0.95004,-2.65423 -2.04192,-3.99677 -3.15625,-4.80078 -1.11432,-0.80401 -2.29185,-1.08024 -3.48828,-1.5 -1.69312,-0.59401 -3.32299,-0.83147 -4.9043,-0.8418 z"
         id="path8311"
         inkscape:connector-curvature="0"
         sodipodi:nodetypes="csssccscsssssscscsscsssc" />
      <ellipse
         transform="matrix(0.93647017,-0.35074723,0.36500959,0.93100376,0,0)"
         style="opacity:1;fill:#ffccaa;fill-opacity:1;fill-rule:nonzero;stroke:#502d16;stroke-width:1.58562;stroke-miterlimit:4;stroke-dasharray:none;stroke-opacity:1"
         id="ellipse5109"
         cx="-813.61304"
         cy="319.40536"
         rx="28.214178"
         ry="39.719162" />
      <ellipse
         ry="35.106556"
         rx="23.963316"
         cy="305.73419"
         cx="-809.07776"
         id="ellipse5199"
         style="opacity:1;fill:none;fill-opacity:1;fill-rule:nonzero;stroke:#ad7045;stroke-width:1.02736;stroke-miterlimit:4;stroke-dasharray:none;stroke-opacity:1"
         transform="matrix(0.93059772,-0.36604355,0.34974742,0.93684403,0,0)" />
      <ellipse
         transform="matrix(0.92926725,-0.36940814,0.34650705,0.93804737,0,0)"
         style="opacity:1;fill:none;fill-opacity:1;fill-rule:nonzero;stroke:#ffb380;stroke-width:1.06484;stroke-miterlimit:4;stroke-dasharray:none;stroke-opacity:1"
         id="ellipse5205"
         cx="-808.43903"
         cy="303.0654"
         rx="17.342817"
         ry="25.520617" />
      <path
         sodipodi:nodetypes="cc"
         inkscape:connector-curvature="0"
         id="path7168"
         d="m -630.71427,542.00506 c 61.30902,-16.41327 143.47633,-26.9364 209.28572,-45"
         style="opacity:0.47;fill:none;fill-rule:evenodd;stroke:url(#linearGradient7279);stroke-width:1;stroke-linecap:butt;stroke-linejoin:miter;stroke-miterlimit:4;stroke-dasharray:none;stroke-opacity:1" />
      <path
         sodipodi:nodetypes="cc"
         style="opacity:0.47;fill:none;fill-rule:evenodd;stroke:url(#linearGradient7287);stroke-width:1;stroke-linecap:butt;stroke-linejoin:miter;stroke-miterlimit:4;stroke-dasharray:none;stroke-opacity:1"
         d="m -612.89767,563.35215 c 56.48598,-23.11457 131.39507,-36.85076 196.68881,-58.58681"
         id="path7172"
         inkscape:connector-curvature="0" />
      <ellipse
         ry="8.9308357"
         rx="6.6094074"
         cy="291.31146"
         cx="-820.48401"
         id="ellipse7236"
         style="opacity:0.47;fill:#e9c6af;fill-opacity:1;fill-rule:nonzero;stroke:#deaa87;stroke-width:0.638328;stroke-miterlimit:4;stroke-dasharray:none;stroke-opacity:1"
         transform="rotate(-22.511767)" />
    </g>
    <path
       style="fill:#000000;fill-opacity:0.257627;fill-rule:evenodd;stroke:none;stroke-width:0.800006px;stroke-linecap:butt;stroke-linejoin:miter;stroke-opacity:1"
       d="m 210.62697,-22.52754 c -1.62209,8.864517 -2.05457,12.090355 -6.10718,16.1429753 -0.0263,0.02632 9.74604,-4.3531663 11.53578,-5.8571843 1.42789,-1.199936 1.57145,-5.213284 1.57145,-7.285763 0,-0.501011 0.31882,-2.824051 0,-3.142877 -0.34769,-0.347691 -5.88094,0.0032 -7.00005,0.142849 z"
       id="path8197"
       inkscape:connector-curvature="0"
       sodipodi:nodetypes="cssssc" />
    <path
       transform="matrix(0.80006521,0,0,0.79990673,700.62797,-506.41259)"
       sodipodi:type="inkscape:offset"
       inkscape:radius="-0.64323342"
       inkscape:original="M -405.31641 510.39648 C -408.37422 509.78581 -411.65206 510.75413 -414.11133 511.65039 C -419.33992 513.5559 -532.22513 551.86444 -578.80469 567.93945 C -589.77932 571.72689 -598.14643 573.80256 -599.32812 574.42383 C -614.36987 582.33192 -619.36037 602.81435 -609.00586 620.76367 C -607.30406 623.71371 -603.05059 629.87112 -600.45508 632.37695 C -589.41841 643.0323 -576.67049 646.68012 -564.46484 640.73633 C -563.03383 640.03947 -552.65066 631.90285 -537.77539 621.90234 C -492.44889 591.42974 -405.42846 533.1868 -402.98828 530.92383 C -399.28582 527.49025 -397.86914 526.71406 -397.18164 524.11719 C -396.76536 522.54478 -395.58205 520.76879 -398.3418 515.51953 C -400.6046 511.21553 -403.2802 510.80313 -405.31641 510.39648 z "
       style="opacity:1;fill:#784421;fill-opacity:1;fill-rule:nonzero;stroke:#502d16;stroke-width:1.5;stroke-miterlimit:4;stroke-dasharray:none;stroke-opacity:1"
       id="path8313"
       d="m -407.62109,510.85547 c -2.2073,0.0581 -4.44962,0.73519 -6.26953,1.39844 -2.7106,0.98785 -32.1563,11.01127 -66.85352,22.83593 -34.69722,11.82467 -74.56431,25.4204 -97.85156,33.45704 -5.50072,1.89834 -10.34616,3.36842 -13.96094,4.43945 -1.80739,0.53551 -3.30645,0.97143 -4.42188,1.31055 -1.11542,0.33911 -1.90152,0.61879 -2.05078,0.69726 -14.68869,7.72247 -19.62389,27.7589 -9.41992,45.44727 1.66357,2.88377 5.97207,9.08863 8.44141,11.47265 10.91138,10.5344 23.3077,14.06539 35.26172,8.24414 0.19005,-0.0925 1.18271,-0.75916 2.58593,-1.77343 1.40322,-1.01427 3.30065,-2.41094 5.61914,-4.09766 4.637,-3.37345 10.95909,-7.91131 18.40625,-12.91797 22.66396,-15.23677 55.75133,-37.41615 83.47657,-56.06836 13.86261,-9.3261 26.38383,-17.76987 35.59179,-24.02344 4.60398,-3.12678 8.37947,-5.70753 11.07813,-7.57422 1.34933,-0.93334 2.43111,-1.68713 3.20898,-2.24218 0.77788,-0.55506 1.29824,-0.95655 1.35352,-1.00782 1.8635,-1.72817 3.1483,-2.78921 4.00586,-3.68945 0.85756,-0.90024 1.29735,-1.60245 1.61719,-2.81055 0.23139,-0.87405 0.58529,-1.59273 0.58789,-2.75781 0.003,-1.16508 -0.34892,-2.81228 -1.69727,-5.37695 -2.17349,-4.13412 -4.46887,-4.37953 -6.5293,-4.79102 -0.71079,-0.14195 -1.44392,-0.19124 -2.17968,-0.17187 z" />
    <ellipse
       transform="matrix(0.89888109,-0.43819264,0.49323158,0.86989804,0,0)"
       ry="27.161236"
       rx="19.765802"
       cy="85.550385"
       cx="213.23232"
       id="ellipse5115"
       style="fill:#ffccaa;fill-opacity:1;fill-rule:nonzero;stroke:#502d16;stroke-width:1.3022;stroke-miterlimit:4;stroke-dasharray:none;stroke-opacity:1" />
    <ellipse
       style="fill:none;fill-opacity:1;fill-rule:nonzero;stroke:#ad7045;stroke-width:0.83747;stroke-miterlimit:4;stroke-dasharray:none;stroke-opacity:1"
       id="ellipse5201"
       cx="213.06918"
       cy="85.241325"
       rx="16.413076"
       ry="22.554081"
       transform="matrix(0.89888109,-0.43819264,0.49323158,0.86989804,0,0)" />
    <ellipse
       transform="matrix(0.89888109,-0.43819264,0.49323158,0.86989804,0,0)"
       ry="15.797822"
       rx="11.496405"
       cy="85.236023"
       cx="212.718"
       id="ellipse5203"
       style="fill:none;fill-opacity:1;fill-rule:nonzero;stroke:#ffb380;stroke-width:0.83747;stroke-miterlimit:4;stroke-dasharray:none;stroke-opacity:1" />
    <path
       style="opacity:0.47;fill:none;fill-rule:evenodd;stroke:url(#linearGradient7303);stroke-width:0.799986;stroke-linecap:butt;stroke-linejoin:miter;stroke-miterlimit:4;stroke-dasharray:none;stroke-opacity:1"
       d="m 259.78478,-16.570883 c 47.25763,-26.658512 80.4116,-52.188361 119.04271,-71.157476"
       id="path7183"
       inkscape:connector-curvature="0"
       sodipodi:nodetypes="cc" />
    <path
       sodipodi:nodetypes="cc"
       inkscape:connector-curvature="0"
       id="path7200"
       d="m 246.06937,-41.996491 c 57.88452,-24.022062 87.87328,-36.527356 127.61485,-52.302521"
       style="opacity:0.47;fill:none;fill-rule:evenodd;stroke:url(#linearGradient7295);stroke-width:0.799986;stroke-linecap:butt;stroke-linejoin:miter;stroke-miterlimit:4;stroke-dasharray:none;stroke-opacity:1" />
    <ellipse
       transform="matrix(0.858801,-0.51230933,0.5039634,0.86372501,0,0)"
       style="opacity:0.47;fill:#e9c6af;fill-opacity:1;fill-rule:nonzero;stroke:#deaa87;stroke-width:0.426281;stroke-miterlimit:4;stroke-dasharray:none;stroke-opacity:1"
       id="ellipse7238"
       cx="210.70921"
       cy="103.30343"
       rx="4.3923383"
       ry="5.9932699" />
  </g>
  <g
     id="g1513"
     transform="translate(338.7579,38.14527)">
    <path
       id="rect4221"
       d="m 206.68,9.141e-4 c -1.73,-0.0101 -3.46,0.06344 -5.19,0.22344 -6.8,0.61 -13.6,1.67 -20.1,3.8 -5.5,2.13 -10.369,5.58 -15.369,8.6499999 -4.18,2.68 -9.3312,3.2394 -13.581,5.7594 -0.14,2.49 -0.41,7.4606 -0.55,9.9406 -5.57,0.1 -11.319,-1.8303 -16.759,0.02969 -7.64,4.26 -9.81,16.179 -3.45,22.459 1.11,1.19 3.6997,1.67 2.9797,3.75 -4.39,1.15 -9.0091,1.59 -13.189,3.45 -4.42,1.81 -8.7906,5.0609 -13.841,3.0609 -10.12,-1.39 -20.301,-2.7609 -30.541,-2.5109 -25.87,0.94 -51.819,5.5909 -75.809,15.461 -0.13,0.58 -0.3794,1.7403 -0.5094,2.3203 6.93,-1.72 13.48,-4.6712 20.33,-6.6812 12.37,-3.36 24.97,-5.9788 37.75,-7.1688 16.19,-2.18 32.58,-0.52094 48.75,1.0891 0.04,0.4 0.1397,1.2 0.1797,1.6 -2.68,2.13 -5.6806,3.8406 -8.3906,5.9406 0.02,0.39 0.05,1.1897 0.07,1.5797 3.82,0.37 7.7109,-0.18062 11.511,0.30938 -4,5.72 -7.6913,11.64 -11.531,17.45 -15.07,0.72 -30.039,2.89 -44.859,5.7 -19.25,4.849996 -38.37,11.800996 -54.53,23.610996 -0.4,1.06 1.73,2.2603 2.45,1.4203 12.85,-9.49 27.88,-15.53 43.12,-19.95 17.53,-4.539996 35.5,-7.240296 53.55,-8.520296 -0.96,4.06 -2.2606,8.040296 -2.9406,12.169996 -0.58,2.43 -0.29,5.1891 -1.6,7.3891 -14.22,3.19 -27.881,8.5497 -40.891,15.08 -3.43,1.79 -6.5393,4.1209 -9.7593,6.2609 -4.63,3.27 -9.7594,6.2091 -13.059,10.989 2.01,1.91 3.87,-0.31938 5.35,-1.7094 5.04,-5.17 11.28,-8.9303 17.5,-12.52 13.23,-6.5 27.01,-12.15 41.4,-15.5 -0.14,9.3 1.4897,18.45 2.7297,27.63 3.62,-0.78 3.3294,-5.9897 6.0594,-8.0297 6.32,4.72 11.981,10.37 18.911,14.23 3.36,2.01 6.9091,3.6612 10.239,5.7312 -6.33,3.44 -13.219,6.1794 -18.289,11.509 2.25,1.04 5.4391,0.64938 7.0891,2.5094 -9.56,6.28 -20.71,10.281 -29,18.411 0.67,2.96 4.8209,1.4803 7.0109,2.4703 -3.66,8.22 -9.0709,15.52 -14.761,22.43 -6.28,7.85 -9.61,17.42 -13.5,26.55 -1.34,3.22 -1.6997,6.7191 -2.6797,10.039 -0.8,2.85 -3.0194,5.4006 -3.0094,8.4406 0.26,4.19 0.6287,9.1297 4.0687,12.08 3.49,1.1 7.2204,0.80093 10.82,1.2109 -0.93,1.74 -2.7904,5.2188 -3.7204,6.9688 -1.71,3.53 -0.9287,7.6603 -1.7187,11.42 -3.83,1.67 -7.8613,2.95 -11.431,5.15 -2.12,3.65 -4.44,7.5397 -3.95,11.98 -0.68,6.43 3.9407,11.941 9.1407,14.961 11.97,5.96 24.769,10.089 36.709,16.089 6.34,3.03 9.7907,10.28 16.641,12.42 4.19,1.53 8.9693,2.3609 13.259,0.66093 5.71,-2.69 8.681,-9.3809 8.011,-15.511 -0.06,-2.31 -0.1697,-6.9503 -0.2297,-9.2703 4.37,0.89 8.2291,3.3003 12.489,4.5703 15.81,4.81 32.241,8.15 48.841,7.75 3.91,-0.21 7.8097,-0.56031 11.73,-0.67031 0.08,2.62 -0.93,5.42 0.35,7.9 1.84,3.54 5.5,5.61 9.05,7.1 4.99,2.17 10.12,4.15 14.67,7.2 4.02,3.52 6.2503,8.5203 9.4203,12.72 3.94,2.52 8.6187,4.1997 13.369,3.5797 2.98,0.02 5.321,-2.0291 7.911,-3.1891 4.09,0.04 8.4094,1.6103 12.359,-0.17969 2.59,-1.44 4.7403,-3.58 6.6203,-5.85 2.23,-2.54 2.2097,-6.2003 3.2797,-9.2203 1.27,-1.95 3.44,-3.3403 4.05,-5.6703 2.07,-5.07 0.5909,-10.58 -1.6391,-15.27 -0.83,-1.9 -2.55,-3.0497 -4.25,-4.0297 -3.64,-1.97 -7.4106,-3.9103 -11.541,-4.5203 -8.24,-1.33 -16.52,0.33031 -24.77,0.52031 l -0.4704,-0.70938 c 4.37,-2.36 8.9913,-4.3506 12.881,-7.4906 2.32,-1.6 4.38,-3.64 7,-4.75 0.8,1.8 1.3797,3.6903 1.7297,5.6703 7.5,-6.96 14.66,-14.52 19.6,-23.57 4.33,-8.08 7.529,-16.69 10.689,-25.28 0.81,-3.36 4.4604,-0.95062 6.6204,-0.69062 2.72,1.65 4.86,-0.28907 7.1,-1.2891 2.79,-1.33 6.41,1.0597 8.95,-1.0203 3.47,-2.73 4.2196,-7.6097 4.1796,-11.78 -0.89,-5.44 -4.6387,-9.9412 -5.6187,-15.381 -2.25,-10 -6.8103,-19.18 -12.22,-27.8 -3.44,-7.13 -7.57,-13.93 -10.85,-21.13 3.12,0.64 6.229,1.2209 9.439,1.2609 0.72,-2.17 -1.0596,-3.97 -2.1296,-5.65 -9.02,-11.94 -21.429,-20.62 -33.159,-29.65 l 0.1797,-0.7 c 14.57,-4.27 27.35,-13.27 38.58,-23.27 1.98,2.54 3.33,5.4897 5.1,8.1797 l 0.6203,-0.47969 c 2.93,-10.5 3.6793,-21.471 3.2093,-32.341 4.5,-0.12 8.9104,0.92062 13.37,1.4406 9.26,1.62 18.66,2.69 27.73,5.25 3.2,0.87 6.3907,2.0203 9.7407,2.0703 0.03,-0.41 0.08,-1.2409 0.1,-1.6609 -3.49,-1.61 -7.33,-2.2391 -11,-3.2391 -5.1,-1.1 -10.019,-2.8609 -15.109,-3.9609 -8.24,-1.32 -16.641,-1.4794 -24.861,-2.8594 -1.8,-3.04 -1.7894,-6.8497 -3.1094,-10.079996 -0.61,-3.88 -3.1097,-7.2206 -3.5797,-11.091 11.41,-2.41 23.11,-2.6597 34.65,-4.1797 9.3,-1.46 18.729,-0.80969 28.109,-0.97969 13.14,-0.22 26.27,0.88906 39.28,2.7391 4.75,0.48 9.4006,2.7106 14.241,2.0906 0.09,-0.41 0.2694,-1.2103 0.3594,-1.6203 -8.66,-2.26 -17.48,-4.0206 -26.42,-4.5906 -11.04,-0.86 -22.09,-2.2091 -33.18,-1.3891 -12.49,0.79 -25.03,0.84906 -37.43,2.6891 -7.31,0.51 -14.5,2.65 -21.87,2.05 -2.56,-2.99 -6.1204,-6.0197 -6.6204,-10.18 3.81,-0.23 7.9407,0.98 11.591,-0.25 -4.17,-5.11 -10.409,-7.7603 -16.159,-10.62 3,-1.99 6.4897,-2.9788 9.8297,-4.2188 18.97,-7.56 39.01,-11.891 58.93,-16.111 17.3,-3.01 34.84,-4.5691 52.4,-4.6391 7.38,-0.11 14.72,1 22.1,1.1 -0.03,-0.73 -0.09,-2.1903 -0.1297,-2.9203 -8.32,-0.21 -16.64,-0.06031 -24.95,-0.12031 -19.03,-0.39 -37.931,2.3097 -56.661,5.3797 -22.35,3.6 -43.76,11.24 -64.78,19.43 -9.11,-0.25 -17.489,-4.5591 -26.489,-5.6891 2.28,-3.65 6.5191,-6.5306 6.6391,-11.191 -0.72,-3.95 -1.0194,-8.4994 -3.8094,-11.659 -3.78,-3.7 -9.561,-2.79 -14.311,-3.6 -0.91,-2.94 -0.5796,-6.2903 -2.1296,-8.9703 -6.96,-4.06 -15.9,-2.6297 -22.45,-7.6297 -10.17,-6.4793999 -22.17,-10.5979999 -34.28,-10.6689999 z m 45.49,19.4529999 c 2.34,0.52 4.8894,0.88 6.8094,2.45 1.48,2.16 0.9197,4.9594 1.0797,7.4594 -0.4,-0.01 -1.1891,-0.02906 -1.5891,-0.03906 -2.44,-3.05 -4.4,-6.4803 -6.3,-9.8703 z"
       fill="#dda15a" />
    <path
       id="path4"
       d="m 206.68,9.141e-4 c -1.73,-0.0101 -3.46,0.06344 -5.19,0.22344 -6.8,0.61 -13.6,1.67 -20.1,3.8 -5.5,2.13 -10.369,5.58 -15.369,8.6499999 -4.18,2.68 -9.3312,3.2394 -13.581,5.7594 -0.14,2.49 -0.41,7.4606 -0.55,9.9406 -5.57,0.1 -11.319,-1.8303 -16.759,0.02969 -7.64,4.26 -9.81,16.179 -3.45,22.459 1.11,1.19 3.6997,1.67 2.9797,3.75 -4.39,1.15 -9.0091,1.59 -13.189,3.45 -4.42,1.81 -8.7906,5.0609 -13.841,3.0609 -10.12,-1.39 -20.301,-2.7609 -30.541,-2.5109 -25.87,0.94 -51.819,5.5909 -75.809,15.461 -0.13,0.58 -0.3794,1.7403 -0.5094,2.3203 6.93,-1.72 13.48,-4.6712 20.33,-6.6812 12.37,-3.36 24.97,-5.9788 37.75,-7.1688 16.19,-2.18 32.58,-0.52094 48.75,1.0891 0.04,0.4 0.1397,1.2 0.1797,1.6 -2.68,2.13 -5.6806,3.8406 -8.3906,5.9406 0.02,0.39 0.05,1.1897 0.07,1.5797 3.82,0.37 7.7109,-0.18062 11.511,0.30938 -4,5.72 -7.6912,11.64 -11.531,17.45 -15.07,0.72 -30.039,2.89 -44.859,5.7 -19.25,4.849996 -38.37,11.800996 -54.53,23.610996 -0.4,1.06 1.73,2.2603 2.45,1.4203 12.85,-9.49 27.88,-15.53 43.12,-19.95 17.53,-4.539996 35.5,-7.240296 53.55,-8.520296 -0.96,4.06 -2.2606,8.040296 -2.9406,12.169996 -0.58,2.43 -0.29,5.1891 -1.6,7.3891 -14.22,3.19 -27.881,8.5497 -40.891,15.08 -3.43,1.79 -6.5394,4.1209 -9.7594,6.2609 -4.63,3.27 -9.7594,6.2091 -13.059,10.989 2.01,1.91 3.87,-0.31938 5.35,-1.7094 5.04,-5.17 11.28,-8.9303 17.5,-12.52 13.23,-6.5 27.01,-12.15 41.4,-15.5 -0.14,9.3 1.4897,18.45 2.7297,27.63 3.62,-0.78 3.3294,-5.9897 6.0594,-8.0297 6.32,4.72 11.981,10.37 18.911,14.23 3.36,2.01 6.9091,3.6612 10.239,5.7312 -6.33,3.44 -13.219,6.1794 -18.289,11.509 2.25,1.04 5.4391,0.64938 7.0891,2.5094 -9.56,6.28 -20.71,10.281 -29,18.411 0.67,2.96 4.8209,1.4803 7.0109,2.4703 -3.66,8.22 -9.0709,15.52 -14.761,22.43 -6.28,7.85 -9.61,17.42 -13.5,26.55 -1.34,3.22 -1.6997,6.7191 -2.6797,10.039 -0.8,2.85 -3.0194,5.4006 -3.0094,8.4406 0.26,4.19 0.6288,9.1297 4.0688,12.08 3.49,1.1 7.2203,0.80093 10.82,1.2109 -0.93,1.74 -2.7903,5.2188 -3.7203,6.9688 -1.71,3.53 -0.9288,7.6603 -1.7188,11.42 -3.83,1.67 -7.8612,2.95 -11.431,5.15 -2.12,3.65 -4.44,7.5397 -3.95,11.98 -0.68,6.43 3.9406,11.941 9.1406,14.961 11.97,5.96 24.769,10.089 36.709,16.089 6.34,3.03 9.7906,10.28 16.641,12.42 4.19,1.53 8.9694,2.3609 13.259,0.66093 5.71,-2.69 8.6809,-9.3809 8.0109,-15.511 -0.06,-2.31 -0.1697,-6.9503 -0.2297,-9.2703 4.37,0.89 8.2291,3.3003 12.489,4.5703 15.81,4.81 32.241,8.15 48.841,7.75 3.91,-0.21 7.8097,-0.56031 11.73,-0.67031 0.08,2.62 -0.93,5.42 0.35,7.9 1.84,3.54 5.5,5.61 9.05,7.1 4.99,2.17 10.12,4.15 14.67,7.2 4.02,3.52 6.2503,8.5203 9.4203,12.72 3.94,2.52 8.6188,4.1997 13.369,3.5797 2.98,0.02 5.3209,-2.0291 7.9109,-3.1891 4.09,0.04 8.4094,1.6103 12.359,-0.17969 2.59,-1.44 4.7403,-3.58 6.6203,-5.85 2.23,-2.54 2.2097,-6.2003 3.2797,-9.2203 1.27,-1.95 3.44,-3.3403 4.05,-5.6703 2.07,-5.07 0.5909,-10.58 -1.6391,-15.27 -0.83,-1.9 -2.55,-3.0497 -4.25,-4.0297 -3.64,-1.97 -7.4106,-3.9103 -11.541,-4.5203 -8.24,-1.33 -16.52,0.33031 -24.77,0.52031 l -0.4703,-0.70938 c 4.37,-2.36 8.9912,-4.3506 12.881,-7.4906 2.32,-1.6 4.38,-3.64 7,-4.75 0.8,1.8 1.3797,3.6903 1.7297,5.6703 7.5,-6.96 14.66,-14.52 19.6,-23.57 4.33,-8.08 7.5291,-16.69 10.689,-25.28 0.81,-3.36 4.4603,-0.95062 6.6203,-0.69062 2.72,1.65 4.86,-0.28907 7.1,-1.2891 2.79,-1.33 6.41,1.0597 8.95,-1.0203 3.47,-2.73 4.2197,-7.6097 4.1797,-11.78 -0.89,-5.44 -4.6388,-9.9412 -5.6188,-15.381 -2.25,-10 -6.8103,-19.18 -12.22,-27.8 -3.44,-7.13 -7.57,-13.93 -10.85,-21.13 3.12,0.64 6.2291,1.2209 9.4391,1.2609 0.72,-2.17 -1.0597,-3.97 -2.1297,-5.65 -9.02,-11.94 -21.429,-20.62 -33.159,-29.65 l 0.1797,-0.7 c 14.57,-4.27 27.35,-13.27 38.58,-23.27 1.98,2.54 3.33,5.4897 5.1,8.1797 l 0.6203,-0.47969 c 2.93,-10.5 3.6794,-21.471 3.2094,-32.341 4.5,-0.12 8.9103,0.92062 13.37,1.4406 9.26,1.62 18.66,2.69 27.73,5.25 3.2,0.87 6.3906,2.0203 9.7406,2.0703 0.03,-0.41 0.08,-1.2409 0.1,-1.6609 -3.49,-1.61 -7.33,-2.2391 -11,-3.2391 -5.1,-1.1 -10.019,-2.8609 -15.109,-3.9609 -8.24,-1.32 -16.641,-1.4794 -24.861,-2.8594 -1.8,-3.04 -1.7894,-6.8497 -3.1094,-10.079996 -0.61,-3.88 -3.1097,-7.2206 -3.5797,-11.091 11.41,-2.41 23.11,-2.6597 34.65,-4.1797 9.3,-1.46 18.729,-0.80969 28.109,-0.97969 13.14,-0.22 26.27,0.88906 39.28,2.7391 4.75,0.48 9.4006,2.7106 14.241,2.0906 0.09,-0.41 0.2694,-1.2103 0.3594,-1.6203 -8.66,-2.26 -17.48,-4.0206 -26.42,-4.5906 -11.04,-0.86 -22.09,-2.2091 -33.18,-1.3891 -12.49,0.79 -25.03,0.84906 -37.43,2.6891 -7.31,0.51 -14.5,2.65 -21.87,2.05 -2.56,-2.99 -6.1203,-6.0197 -6.6203,-10.18 3.81,-0.23 7.9406,0.98 11.591,-0.25 -4.17,-5.11 -10.409,-7.7603 -16.159,-10.62 3,-1.99 6.4897,-2.9788 9.8297,-4.2188 18.97,-7.56 39.01,-11.891 58.93,-16.111 17.3,-3.01 34.84,-4.5691 52.4,-4.6391 7.38,-0.11 14.72,1 22.1,1.1 -0.03,-0.73 -0.09,-2.1903 -0.1297,-2.9203 -8.32,-0.21 -16.64,-0.06031 -24.95,-0.12031 -19.03,-0.39 -37.931,2.3097 -56.661,5.3797 -22.35,3.6 -43.76,11.24 -64.78,19.43 -9.11,-0.25 -17.489,-4.5591 -26.489,-5.6891 2.28,-3.65 6.5191,-6.5306 6.6391,-11.191 -0.72,-3.95 -1.0194,-8.4994 -3.8094,-11.659 -3.78,-3.7 -9.5609,-2.79 -14.311,-3.6 -0.91,-2.94 -0.5797,-6.2903 -2.1297,-8.9703 -6.96,-4.06 -15.9,-2.6297 -22.45,-7.6297 -10.17,-6.4793999 -22.17,-10.5979999 -34.28,-10.6689999 z m 0.1984,2.7312 c 10.491,0.21392 20.824,3.7597 30.192,8.3421999 -4.98,1.38 -9.84,-1.05 -14.8,-1.3499999 -2.15,0.22 -4.41,1.5796999 -5.2,3.6796999 -0.08,5 -0.1709,10.009 -0.2609,15.009 -5.77,-0.03 -11.849,1.3509 -17.489,-0.28906 -0.67,-5.56 0.2594,-11.281 -0.6906,-16.791 -1.63,-1.14 -3.6,-1.9402999 -5.6,-1.5202999 -7.74,1.0799999 -15.4,2.5799999 -23.08,3.8999999 1.2,-1.26 2.5297,-2.42 4.1797,-3.1 7.78,-4.3599999 16.65,-6.4886999 25.47,-7.4686999 2.4281,-0.33375 4.8571,-0.46186 7.2781,-0.4125 z m 19.233,12.8309999 c 6.4383,0.10978 12.834,1.2791 19.098,2.6703 5.19,2.76 8.33,8.06 11.1,13.05 2.73,5.47 4.7206,11.9 3.2406,18 -9.53,0.76 -19.13,-0.06937 -28.63,1.1906 -3.72,1.8 -7.43,-0.29969 -8.9,-3.6297 -0.24,-7.94 -0.1803,-15.891 -0.02,-23.831 -0.39,-2.68 0.06,-5.1597 1.35,-7.4297 0.9213,-0.03 1.8412,-0.036 2.7609,-0.02031 z m -35.855,0.03594 c 1.1452,0.0055 2.2803,0.13375 3.3828,0.475 0.35,10.98 1.0006,22.109 0.041,33.059 -4,2.45 -8.93,0.98094 -13.3,1.0109 -7.76,-0.86 -15.53,-0.25 -23.28,0.05 -0.15,-5.2 -0.23,-10.4 -0.25,-15.6 0.43,-3.6 -1.0909,-7.9312 2.0391,-10.881 0.35,-3.51 3.5009,-3.7188 5.9609,-4.3188 6.58,-1.05 13.14,-2.2012 19.72,-3.2312 1.8438,-0.24375 3.7773,-0.57324 5.686,-0.56406 z m 61.914,3.8547 c 2.34,0.52 4.8894,0.88 6.8094,2.45 1.48,2.16 0.9197,4.9594 1.0797,7.4594 -0.4,-0.01 -1.1891,-0.02906 -1.5891,-0.03906 -2.44,-3.05 -4.4,-6.4803 -6.3,-9.8703 z m -25.931,6.8906 c 1.36,3.06 1.5712,6.3791 1.4312,9.6891 -0.11,1.39 1.7894,2.1997 2.7094,1.2297 1.03,-0.71 1.9994,-1.4988 3.0594,-2.1688 1.46,0.01 2.9,0.34969 4.35,0.52969 -1.65,-5.02 -5.83,-9.4697 -11.55,-9.2797 z m -37.819,0.02969 c -1.16,0.11 -3.4812,0.32906 -4.6312,0.43906 -3.1,2.07 -5.7097,5.0803 -6.8297,8.6703 1.49,-0.2 2.98,-0.52906 4.5,-0.53906 1.41,1.29 2.8503,3.9691 4.9703,2.0891 1.07,-3.22 0.6406,-6.7794 2.1406,-9.8594 z m -44.855,4.0641 c 2.2063,0.02875 4.3597,0.34062 6.2547,1.5656 0.07,0.64 0.1988,1.9106 0.2688,2.5406 -2.66,-0.54 -5.2097,-1.5006 -7.8797,-1.9906 -0.41,0.99 -0.7497,2.0106 -1.0297,3.0406 2.23,0.41 4.4897,0.67 6.6797,1.25 -0.02,5.25 -1.46,10.379 -2.4,15.509 -4.73,1.38 -9.8397,-0.95062 -12.93,-4.4906 -3.16,-5.64 -1.8006,-14.379 4.4594,-17.289 2.11,0.09 4.3703,-0.16469 6.5765,-0.13594 z m 127.62,0.25625 c 1.9012,0.01625 3.7834,0.20406 5.5484,0.93906 1.83,3.09 3.84,6.38 4.15,10.05 -0.18,2.72 -1.4297,5.5003 -3.5297,7.2703 -2.91,3.88 -8.2497,2.42 -12.18,1.25 -0.09,-4.65 -0.9306,-9.4503 0.2594,-14.02 1.46,-0.35 2.9503,-0.55969 4.4203,-0.87969 0.02,-0.66 0.059,-1.9894 0.089,-2.6594 -1.8,0.16 -3.5788,0.46 -5.3688,0.65 0.24,-0.63 0.71,-1.8809 0.95,-2.5109 1.84,0.05 3.7597,-0.10531 5.661,-0.08906 z m -60.958,4.7844 c 2.2314,0.01594 4.4568,0.13406 6.6656,0.44531 0.06,2.61 0.1806,7.8103 0.2406,10.42 -6.18,-1.28 -12.2,0.59938 -18.3,1.1594 -0.11,-3.9 -0.029,-7.8006 0.2406,-11.691 3.7,-0.10625 7.4341,-0.36094 11.153,-0.33438 z m -58.903,2.0547 0.6594,0.66094 c 0.14,4.66 0.53,9.4291 -0.4,14.039 -1.17,0.27 -2.3594,0.44094 -3.5594,0.51094 0.73,-5.13 1.73,-10.261 3.3,-15.211 z m 58.659,11.236 c 0.8142,0.03453 1.605,0.24 2.35,0.725 h 2.55 c 3.59,0.67 7.5606,1.4391 10.041,4.3891 -0.02,0.37 -0.041,1.1103 -0.061,1.4703 -2.95,2.76 -6.7494,4.9103 -8.5094,8.7203 -2.23,3.87 -2.8797,8.75 -6.2297,11.9 -2.48,-3.49 -4.3403,-7.33 -6.3203,-11.1 -1.91,-3.95 -5.26,-6.8206 -7.95,-10.191 1.16,-2.7 3.9094,-4.1997 6.7094,-4.6297 2.3175,0.0375 4.9776,-1.388 7.4203,-1.2844 z m 44.897,3.7297 c 5.7256,0.05265 11.426,0.67625 16.933,2.375 8.23,2.61 16.91,3.77 24.98,6.9 l -0.05,0.75 c -14.95,6.69 -29.019,15.15 -42.819,23.93 -1.79,0.89 -0.05,2.6006 1.0297,3.1906 14.06,-9.9 29.25,-18.101 44.85,-25.291 5.55,-1.26 10.61,2.0197 15.23,4.6297 -2.88,1.27 -6.0806,1.5197 -9.0906,2.2797 2.93,4.12 6.03,8.1112 8.75,12.381 -17.58,3.35 -35.199,6.9988 -51.819,13.819 -1.49,0.89 -5.7403,1.1909 -4.4203,3.960896 2.63,0.44 5.0394,-0.96093 7.4094,-1.860896 11.74,-4.95 24.191,-7.7791 36.591,-10.489 4.63,-0.99 9.2703,-2.0903 14.02,-2.3703 3.68,5.96 6.2791,12.791 6.2891,19.890996 -2.82,0 -5.5294,-0.04 -8.3094,-0.3 -13.99,-1.6 -28.071,0.01 -42.061,0.67969 -0.09,0.71 -0.2591,2.1197 -0.3391,2.8297 17.27,0.08 34.75,-3.06 51.9,0.2 0.21,8.19 0.2891,16.44 -1.0609,24.55 -0.43,-0.01 -1.28,-0.04 -1.7,-0.05 -0.8,-1.93 -1.1494,-4.0203 -1.9094,-5.9703 -5.05,5.8 -10.96,10.81 -17.4,15 -14.32,9.99 -31.77,16.59 -49.45,14.95 -6.6,-0.91 -12.96,-3.2697 -18.77,-6.4797 -5.71,-4.54 -10.91,-9.69 -16.65,-14.2 -2.68,-2.3 -6.9397,-4.8503 -5.0297,-9.3703 0.05,-16.41 -0.1903,-32.829996 0.08,-49.229996 1.44,-3.31 3.5903,-6.2603 5.1203,-9.5203 2.29,-5.6 6.6103,-10.04 11.27,-13.75 4.19,-1.47 8.68,-2.2294 13.1,-2.7594 4.4056,-0.41125 8.8733,-0.71595 13.327,-0.675 z m -83.384,1.0375 c 6.6028,0.04346 13.184,0.9 19.447,3.0875 3.47,1.62 7.3703,3.4191 8.9703,7.1891 2.69,5.05 4.9909,10.35 8.6609,14.8 0.91,9.66 0.26,19.37 0.4,29.049996 -0.13,8.8 0.3594,17.611 -0.041,26.411 -5.1,4.75 -10.531,9.1194 -15.691,13.809 -2.34,2.04 -4.5997,4.2603 -7.4297,5.6203 -7.67,3.58 -16.129,5.6994 -24.639,5.1094 -10.98,-0.22 -21.461,-4.0794 -31.131,-9.0094 -10.11,-5.46 -19.439,-12.42 -27.259,-20.85 -1.58,1.33 -1.0406,4.02 -1.7906,5.9 -0.4,-0.16 -1.1991,-0.47969 -1.5891,-0.62969 -0.54,-6.55 -2.2897,-13.32 -1.0297,-19.85 10.55,-2.66 21.46,-2.9509 32.25,-3.8609 0.05,-0.71 0.1697,-2.1291 0.2297,-2.8391 -11.07,-0.69 -21.83,2.18 -32.75,3.2 0.84,-6.03 1.7991,-12.249996 4.5891,-17.729996 13.74,-0.83 27.521,0.0594 41.281,-0.29062 0.01,-0.75 0.02,-2.25 0.03,-3 -13.23,-0.14 -26.46,-0.12 -39.68,0.45 1.78,-7.4 7.8697,-12.53 11.73,-18.82 -2.97,-1.15 -6.4206,-0.73031 -9.2406,-2.3703 2.56,-1.95 5.5309,-3.9394 9.0109,-2.9594 5.56,0.68 10.679,3.2103 15.959,4.9203 8.08,2.7 15.18,7.47 22.57,11.55 1.85,0.62 1.6191,-1.0306 1.4391,-2.2906 -9.69,-6.96 -20.92,-11.429 -32.2,-15.139 -2.2,-0.75 -4.5991,-0.94031 -6.6391,-2.1203 8.98,-3.64 18.42,-6.4406 28.12,-7.1406 4.88,-0.33 9.7197,-0.99937 14.58,-1.5094 3.9113,-0.44625 7.8805,-0.71358 11.842,-0.6875 z m 40.088,84.336996 c 5.88,3.55 11.27,7.9503 16.1,12.82 -0.73,2.26 -2.3297,4.1197 -3.6297,6.0797 -2.34,4 -8.3197,1.08 -11.88,1.6 -0.28,-6.84 -0.3606,-13.67 -0.5906,-20.5 z m -2.1594,0.93907 c -0.16,6.49 -0.3809,12.981 -0.6609,19.461 -3.34,-0.48 -8.7097,2.3997 -10.88,-1.4703 -1.46,-1.89 -2.9794,-3.8303 -3.7594,-6.1203 3.32,-2.89 6.7297,-5.67 9.9297,-8.7 1.35,-1.17 2.6097,-2.6903 4.4797,-2.9703 z m 20.75,14.681 c 5.34,2.46 10.49,5.5488 16.33,6.7188 9.81,3 19.959,0.42124 29.889,-0.21876 10.25,7.27 20.141,15.19 28.861,24.3 1.71,1.95 4.3591,3.5491 4.7391,6.3391 -3.95,-0.6 -7.8191,-1.6297 -11.789,-2.1297 1.91,3.62 5.02,6.4794 6.85,10.159 2.32,4.4 4.4097,8.9309 6.3797,13.511 3.27,7.36 4.7797,15.379 5.5797,23.359 -3.32,0.41 -6.39,-3.3 -9.55,-1.25 -0.5,5.96 -1.7803,11.97 -1.1203,17.97 1.12,5.98 0.2,12.15 -1.9,17.8 -5.14,15.1 -11.35,30.45 -23,41.77 -0.82,0.62 -2.4691,1.8597 -3.2891,2.4797 -0.76,-1.5 -1.4106,-3.0497 -2.1906,-4.5297 -9.98,8.71 -21.46,15.78 -34.13,19.78 -25.01,6.8 -51.829,6.85 -76.859,0.1 -7.52,-1.92 -14.9,-4.6403 -21.72,-8.3703 -1.99,-6.32 -3.9103,-12.7 -5.1203,-19.22 -0.42,-9.88 0.2197,-19.789 -0.9203,-29.639 -2.06,-4.93 -2.9403,-11.07 -7.9203,-14 -1.06,-1.1 -3.1997,-1.5209 -3.3797,-3.2109 -3.17,0.28 -6.3291,-0.54907 -9.4891,-0.28907 -3.18,0.91 -5.8409,3.0403 -8.5609,4.8203 -2.15,3.37 -2.4997,7.7194 -4.8297,10.909 -1.67,-0.58 -3.3097,-1.33 -4.7297,-2.4 -2.72,-7.77 -2.9009,-16.179 -3.2609,-24.309 -2.66,-1.11 -4.7488,2.0694 -7.4688,1.4094 -0.33,-16.08 3.3291,-32.19 10.539,-46.55 1.88,-4.16 5.1806,-7.4106 7.4906,-11.291 l -0.1797,-0.68907 c -1.93,-0.51 -3.92,-0.90093 -5.7,-1.8609 9.55,-6.49 20.339,-11.129 29.169,-18.689 -2.15,-1.71 -5.9994,-0.34062 -7.8094,-2.3906 3.99,-2.1 7.8903,-4.4394 12.07,-6.1594 4.97,-1.98 10.159,0.78907 14.989,1.7891 7.2,2.02 14.78,2.5103 22.22,1.8203 7.8,-0.84 14.71,-4.8103 21.95,-7.5203 2.29,2.66 4.2803,5.5609 6.7203,8.1109 8.04,-0.16 16.08,-0.11 24.13,-0.15 2.46,-2.65 4.4109,-5.7497 7.0109,-8.2797 z m -140.29,57.01 c -1.48,6.93 -3.7188,13.721 -4.4188,20.811 -0.34,6.06 -1.6,12.519 0.5,18.409 2.23,-0.2 4.27,-1.16 6.4,-1.75 -0.32,6.7 1.0794,13.29 2.6094,19.77 -1.07,-0.2 -2.1097,-0.49 -3.1297,-0.85 -0.88,-1.67 -1.42,-3.4903 -2.15,-5.2203 l -1.5203,0.56093 c 1.52,4.06 -2.0894,7.4097 -5.7594,6.3297 -2.81,-1.48 -2.92,-4.9303 -3.9,-7.5703 -0.6,-0.05 -1.8,-0.13969 -2.4,-0.17969 -0.04,2.2 0.5688,4.3494 0.4688,6.5594 -2.11,0.49 -4.3994,0.0209 -6.0594,-1.3891 -1.68,-4.56 -2.8694,-10.33 0.2406,-14.52 4.03,-6.28 3.97,-14.17 7.2,-20.82 3.08,-6.87 6.4494,-13.869 11.359,-19.609 z m 228.98,15.281 0.8391,0.0297 c 3.04,6.4 5.0709,13.259 6.7609,20.139 0.79,3.09 3.0891,5.5203 3.9891,8.5703 0.71,3.17 0.7197,6.69 -0.7703,9.65 -1.1,2.32 -3.8488,3.7609 -6.3688,3.1609 0.06,-2.17 0.4488,-4.3212 0.5188,-6.4812 -0.61,0 -1.8188,0.0109 -2.4188,0.0109 -1.27,2.55 -1.1406,6.2694 -3.9406,7.7094 -4.31,0.81 -6.2594,-0.96031 -5.8594,-5.3203 -0.02,-1.68 -3.0709,-1.6597 -2.4609,-3.5797 1.21,-7.61 -1.1794,-15.35 0.6906,-22.92 3.2,0.08 5.4594,2.85 8.3094,4 2.12,-4.78 1.7809,-10.009 0.7109,-14.969 z m -199.46,31.875 c 6.2762,-0.14396 11.942,5.2284 13.473,11.205 2.85,10.78 1.7194,22.089 2.2594,33.109 1.72,10.7 6.91,20.721 6.9,31.711 0.08,4.31 -2.1194,8.2288 -4.1594,11.869 -2.06,1.5 -4.5097,2.5112 -7.0297,2.8312 -4.15,-0.2 -8.0606,-1.9512 -11.741,-3.7312 -3.76,-2.6 -6.4597,-6.4194 -10.28,-8.9594 -4.63,-2.95 -9.7294,-4.9903 -14.759,-7.1203 -6.11,-2.5 -12.011,-5.46 -18.181,-7.8 -3.91,-1.44 -7.5791,-3.61 -10.639,-6.45 -2.76,-3.94 -2.5603,-9.2391 -1.6703,-13.739 0.85,-2.38 1.8803,-5.2503 4.6203,-6.0203 2.66,-1.12 5.4094,-2.7297 8.4094,-2.5797 9.51,8.13 18.191,17.169 27.561,25.439 2.16,1.39 3.5688,5.2009 6.5688,4.7609 0.29,-1.55 -0.1988,-2.8103 -1.4688,-3.7703 -9.14,-9.58 -19.471,-17.931 -29.091,-26.991 -3.32,-3.51 -2.1806,-9.0103 -0.7906,-13.17 0.87,-3.56 4.7012,-5.5388 7.6312,-7.1188 5.98,-0.83 14.94,-0.93031 17.95,5.6797 4.9,9.19 7.3594,19.44 12.009,28.77 1.32,2.37 2.3894,6.44 5.8594,6.05 -0.44,-3.57 -3.0197,-6.2903 -4.4297,-9.4703 -3.22,-7.29 -5.58,-14.91 -8.75,-22.22 -1.35,-3.19 -2.7191,-6.4806 -2.6391,-10.041 0.85,-5.24 3.9088,-10.99 9.6688,-11.83 0.9112,-0.26 1.8206,-0.3935 2.7172,-0.41407 z m 79.844,11.194 c -3.06,0.79 -4.8609,4.3403 -4.0109,7.3203 1.07,3.63 4.9006,5.94 8.5406,6.15 -0.04,-0.55 -0.1297,-1.65 -0.1797,-2.2 -2.73,-1.52 -6.2309,-3.3703 -5.5609,-7.1203 1.89,-1.63 4.5012,-0.33969 6.7312,-0.47969 0.55,-3.08 -3.3103,-3.5303 -5.5203,-3.6703 z m 71.962,60.637 c 3.1352,-6.4e-4 6.2694,0.095 9.3969,0.31251 4.04,0.78 7.7106,2.8509 11.191,4.9609 5.37,4.28 5.06,12.539 2.6,18.359 -0.37,0.16 -1.1106,0.48062 -1.4906,0.64062 -1.57,-2.78 -1.8194,-6.31 -4.5594,-8.4 -3.54,-4.81 -10.021,-5.07 -15.161,-6.9 -3.57,-0.87 -6.98,-3.03 -10.75,-2.55 -0.09,0.38 -0.2497,1.16 -0.3297,1.55 6.12,3.53 13.6,4.0091 20.1,6.8391 4.2,1.82 6.6203,6.0509 7.7203,10.311 1.56,4.36 -0.9994,8.9294 -3.8094,12.159 -3.04,2.83 -8.2503,5.4906 -11.87,2.0906 -0.54,-4.34 0.4797,-8.9 -1.1703,-13.05 -2.93,-7.95 -10.729,-13.651 -18.909,-15.161 -0.18,1.29 0.3697,2.6506 1.6297,3.1906 2.56,1.44 5.3191,2.4697 7.8891,3.9297 2.14,1.95 4.08,4.19 5.55,6.7 2.14,3.71 1.7509,8.2509 1.4609,12.361 -0.34,1.9 -1.3503,3.8588 -3.2203,4.6188 -4.32,1.56 -9.4297,1.6606 -13.43,-0.80938 -4.81,-2.34 -6.3006,-7.7703 -9.2906,-11.77 -7.06,-6.47 -16.94,-8.1197 -24.63,-13.58 -1.44,-2.32 -1.4103,-5.4694 -0.6703,-8.0594 7.44,-1.61 15.131,-2.23 22.361,-4.75 4.41,-1.55 9.1191,-1.8406 13.739,-2.2906 5.2,-0.43125 10.428,-0.70205 15.653,-0.70313 z"
       fill="#363639" />
    <path
       id="path6"
       d="m 212.33,49.495 c -1.61,0.77 -4.6194,0.61938 -4.3094,3.1094 3.14,1.07 6.5594,0.94062 9.7094,-0.0094 0.93,-2.07 -1.54,-2.35 -2.85,-3.1 z m -0.75,88.38 c 0.23,6.83 0.3106,13.66 0.5906,20.5 3.56,-0.52 9.5397,2.4 11.88,-1.6 1.3,-1.96 2.8997,-3.8197 3.6297,-6.0797 -4.83,-4.87 -10.22,-9.2703 -16.1,-12.82 z m -2.1594,0.93907 -0.8906,0.2 c -1.87,0.28 -3.1297,1.8003 -4.4797,2.9703 -3.2,3.03 -6.6097,5.81 -9.9297,8.7 0.78,2.29 2.2994,4.2303 3.7594,6.1203 2.17,3.87 7.5397,0.99031 10.88,1.4703 0.28,-6.48 0.5009,-12.971 0.6609,-19.461 z"
       fill="#ffffff" />
    <path
       id="path32"
       fill="#f0ccac"
       d="m 143.57,30.438 c -2.2062,-0.02875 -4.4665,0.22594 -6.5765,0.13594 -6.26,2.91 -7.6194,11.649 -4.4594,17.289 3.09,3.54 8.1997,5.8706 12.93,4.4906 0.94,-5.13 2.38,-10.259 2.4,-15.509 -2.19,-0.58 -4.4497,-0.84 -6.6797,-1.25 0.28,-1.03 0.6197,-2.0506 1.0297,-3.0406 2.67,0.49 5.2197,1.4506 7.8797,1.9906 -0.07,-0.63 -0.1988,-1.9006 -0.2688,-2.5406 -1.895,-1.225 -4.0484,-1.5369 -6.2547,-1.5656 z m 127.62,0.25625 c -1.9013,-0.01625 -3.821,0.13906 -5.661,0.08906 -0.24,0.63 -0.71,1.8809 -0.95,2.5109 1.79,-0.19 3.5688,-0.49 5.3688,-0.65 -0.03,0.67 -0.069,1.9994 -0.089,2.6594 -1.47,0.32 -2.9603,0.52969 -4.4203,0.87969 -1.19,4.57 -0.3494,9.3703 -0.2594,14.02 3.93,1.17 9.2697,2.63 12.18,-1.25 2.1,-1.77 3.3497,-4.5503 3.5297,-7.2703 -0.31,-3.67 -2.32,-6.96 -4.15,-10.05 -1.765,-0.735 -3.6472,-0.92281 -5.5484,-0.93906 z m -181.3,179.82 -0.5594,0.53124 c -4.91,5.74 -8.2794,12.739 -11.359,19.609 -3.23,6.65 -3.17,14.54 -7.2,20.82 -3.11,4.19 -1.9206,9.9603 -0.2406,14.52 1.66,1.41 3.9494,1.8791 6.0594,1.3891 0.1,-2.21 -0.5088,-4.3594 -0.4688,-6.5594 0.6,0.04 1.8,0.12969 2.4,0.17969 0.98,2.64 1.09,6.0903 3.9,7.5703 3.67,1.08 7.2794,-2.2697 5.7594,-6.3297 l 1.5203,-0.56093 c 0.73,1.73 1.27,3.5503 2.15,5.2203 1.02,0.36 2.0597,0.65 3.1297,0.85 -1.53,-6.48 -2.9294,-13.07 -2.6094,-19.77 -2.13,0.59 -4.17,1.55 -6.4,1.75 -2.1,-5.89 -0.84,-12.349 -0.5,-18.409 0.7,-7.09 2.9388,-13.881 4.4188,-20.811 z m 228.98,15.281 c 1.07,4.96 1.4091,10.189 -0.7109,14.969 -2.85,-1.15 -5.1094,-3.92 -8.3094,-4 -1.87,7.57 0.5194,15.31 -0.6906,22.92 -0.61,1.92 2.4409,1.8997 2.4609,3.5797 -0.4,4.36 1.5494,6.1303 5.8594,5.3203 2.8,-1.44 2.6706,-5.1594 3.9406,-7.7094 0.6,0 1.8088,-0.0109 2.4188,-0.0109 -0.07,2.16 -0.4588,4.3112 -0.5188,6.4812 2.52,0.6 5.2688,-0.84093 6.3688,-3.1609 1.49,-2.96 1.4803,-6.48 0.7703,-9.65 -0.9,-3.05 -3.1991,-5.4803 -3.9891,-8.5703 -1.69,-6.88 -3.7209,-13.739 -6.7609,-20.139 z m -199.46,31.875 c -0.8966,0.0206 -1.806,0.15407 -2.7172,0.41407 -5.76,0.84 -8.8188,6.5897 -9.6688,11.83 -0.08,3.56 1.2891,6.8506 2.6391,10.041 3.17,7.31 5.53,14.93 8.75,22.22 1.41,3.18 3.9897,5.9003 4.4297,9.4703 -3.47,0.39 -4.5394,-3.68 -5.8594,-6.05 -4.65,-9.33 -7.1094,-19.58 -12.009,-28.77 -3.01,-6.61 -11.97,-6.5097 -17.95,-5.6797 -2.93,1.58 -6.7612,3.5588 -7.6312,7.1188 -1.39,4.16 -2.5294,9.6603 0.7906,13.17 9.62,9.06 19.951,17.411 29.091,26.991 1.27,0.96 1.7588,2.2203 1.4688,3.7703 -3,0.44 -4.4088,-3.3709 -6.5688,-4.7609 -9.37,-8.27 -18.051,-17.309 -27.561,-25.439 -3,-0.15 -5.7494,1.4597 -8.4094,2.5797 -2.74,0.77 -3.7703,3.6403 -4.6203,6.0203 -0.89,4.5 -1.0897,9.7991 1.6703,13.739 3.06,2.84 6.7291,5.01 10.639,6.45 6.17,2.34 12.071,5.3 18.181,7.8 5.03,2.13 10.129,4.1703 14.759,7.1203 3.82,2.54 6.5197,6.3594 10.28,8.9594 3.68,1.78 7.5906,3.5312 11.741,3.7312 2.52,-0.32 4.9697,-1.3312 7.0297,-2.8312 2.04,-3.64 4.2394,-7.5588 4.1594,-11.869 0.01,-10.99 -5.18,-21.011 -6.9,-31.711 -0.54,-11.02 0.5906,-22.329 -2.2594,-33.109 -1.5312,-5.9762 -7.1972,-11.349 -13.473,-11.205 z m 151.81,71.831 c -5.2254,10e-4 -10.453,0.27188 -15.653,0.70313 -4.62,0.45 -9.3291,0.74062 -13.739,2.2906 -7.23,2.52 -14.921,3.14 -22.361,4.75 -0.74,2.59 -0.7697,5.7394 0.6703,8.0594 7.69,5.46 17.57,7.1097 24.63,13.58 2.99,4 4.4806,9.4303 9.2906,11.77 4,2.47 9.1097,2.3694 13.43,0.80938 1.87,-0.76 2.8803,-2.7188 3.2203,-4.6188 0.29,-4.11 0.6791,-8.6509 -1.4609,-12.361 -1.47,-2.51 -3.41,-4.75 -5.55,-6.7 -2.57,-1.46 -5.3291,-2.4897 -7.8891,-3.9297 -1.26,-0.54 -1.8097,-1.9006 -1.6297,-3.1906 8.18,1.51 15.979,7.2109 18.909,15.161 1.65,4.15 0.6303,8.71 1.1703,13.05 3.62,3.4 8.8303,0.73938 11.87,-2.0906 2.81,-3.23 5.3694,-7.7994 3.8094,-12.159 -1.1,-4.26 -3.5203,-8.4909 -7.7203,-10.311 -6.5,-2.83 -13.98,-3.3091 -20.1,-6.8391 0.08,-0.39 0.2397,-1.17 0.3297,-1.55 3.77,-0.48 7.18,1.68 10.75,2.55 5.14,1.83 11.621,2.09 15.161,6.9 2.74,2.09 2.9894,5.62 4.5594,8.4 0.38,-0.16 1.1206,-0.48062 1.4906,-0.64062 2.46,-5.82 2.77,-14.079 -2.6,-18.359 -3.48,-2.11 -7.1506,-4.1809 -11.191,-4.9609 -3.1275,-0.21751 -6.2617,-0.31315 -9.3969,-0.31251 z" />
    <path
       id="path40"
       d="m 202.56,50.054 c 3.09,0.05 6.79,-2.5 9.77,-0.56 -1.61,0.77 -4.62,0.62 -4.31,3.11 3.14,1.07 6.56,0.94 9.71,-0.01 0.93,-2.07 -1.54,-2.35 -2.85,-3.1 3.59,0.67 7.56,1.44 10.04,4.39 -0.02,0.37 -0.04,1.11 -0.06,1.47 -2.95,2.76 -6.75,4.91 -8.51,8.72 -2.23,3.87 -2.88,8.75 -6.23,11.9 -2.48,-3.49 -4.34,-7.33 -6.32,-11.1 -1.91,-3.95 -5.26,-6.82 -7.95,-10.19 1.16,-2.7 3.91,-4.2 6.71,-4.63 z"
       fill="#6e6768" />
    <path
       id="path44"
       fill="#eeaf5f"
       d="m 254.88,52.499 c -4.4533,-0.04095 -8.921,0.26375 -13.327,0.675 -4.42,0.53 -8.91,1.2894 -13.1,2.7594 -4.66,3.71 -8.9803,8.15 -11.27,13.75 -1.53,3.26 -3.6803,6.2103 -5.1203,9.5203 -0.27,16.4 -0.03,32.82 -0.08,49.23 -1.91,4.52 2.3497,7.0703 5.0297,9.3703 5.74,4.51 10.94,9.66 16.65,14.2 5.81,3.21 12.17,5.5697 18.77,6.4797 17.68,1.64 35.13,-4.96 49.45,-14.95 6.44,-4.19 12.35,-9.2 17.4,-15 0.76,1.95 1.1094,4.0403 1.9094,5.9703 0.42,0.01 1.27,0.04 1.7,0.05 1.35,-8.11 1.2709,-16.36 1.0609,-24.55 -17.15,-3.26 -34.63,-0.12 -51.9,-0.2 0.08,-0.71 0.2491,-2.1197 0.3391,-2.8297 13.99,-0.67 28.071,-2.2797 42.061,-0.67969 2.78,0.26 5.4894,0.3 8.3094,0.3 -0.01,-7.1 -2.6091,-13.931 -6.2891,-19.891 -4.75,0.28 -9.3903,1.3803 -14.02,2.3703 -12.4,2.71 -24.851,5.5391 -36.591,10.489 -2.37,0.9 -4.7794,2.3009 -7.4094,1.8609 -1.32,-2.77 2.9303,-3.0709 4.4203,-3.9609 16.62,-6.82 34.239,-10.469 51.819,-13.819 -2.72,-4.27 -5.82,-8.2612 -8.75,-12.381 3.01,-0.76 6.2106,-1.0097 9.0906,-2.2797 -4.62,-2.61 -9.6797,-5.8897 -15.23,-4.6297 -15.6,7.19 -30.79,15.391 -44.85,25.291 -1.08,-0.59 -2.8197,-2.3006 -1.0297,-3.1906 13.8,-8.78 27.869,-17.24 42.819,-23.93 l 0.05,-0.75 c -8.07,-3.13 -16.75,-4.29 -24.98,-6.9 -5.5069,-1.6988 -11.207,-2.3224 -16.933,-2.375 z m -83.384,1.0375 c -3.9617,-0.02607 -7.9309,0.24125 -11.842,0.6875 -4.86,0.51 -9.6997,1.1794 -14.58,1.5094 -9.7,0.7 -19.14,3.5006 -28.12,7.1406 2.04,1.18 4.4391,1.3703 6.6391,2.1203 11.28,3.71 22.51,8.1791 32.2,15.139 0.18,1.26 0.4109,2.9106 -1.4391,2.2906 -7.39,-4.08 -14.49,-8.85 -22.57,-11.55 -5.28,-1.71 -10.399,-4.2403 -15.959,-4.9203 -3.48,-0.98 -6.4509,1.0094 -9.0109,2.9594 2.82,1.64 6.2706,1.2203 9.2406,2.3703 -3.86,6.29 -9.9497,11.42 -11.73,18.82 13.22,-0.57 26.45,-0.59 39.68,-0.45 -0.01,0.75 -0.02,2.25 -0.03,3 -13.76,0.35 -27.541,-0.53938 -41.281,0.29062 -2.79,5.48 -3.7491,11.7 -4.5891,17.73 10.92,-1.02 21.68,-3.89 32.75,-3.2 -0.06,0.71 -0.1797,2.1291 -0.2297,2.8391 -10.79,0.91 -21.7,1.2009 -32.25,3.8609 -1.26,6.53 0.4897,13.3 1.0297,19.85 0.39,0.15 1.1891,0.46969 1.5891,0.62969 0.75,-1.88 0.2106,-4.57 1.7906,-5.9 7.82,8.43 17.149,15.39 27.259,20.85 9.67,4.93 20.151,8.7894 31.131,9.0094 8.51,0.59 16.969,-1.5294 24.639,-5.1094 2.83,-1.36 5.0897,-3.5803 7.4297,-5.6203 5.16,-4.69 10.591,-9.0594 15.691,-13.809 0.4,-8.8 -0.089,-17.611 0.041,-26.411 -0.14,-9.68 0.51,-19.39 -0.4,-29.05 -3.67,-4.45 -5.9709,-9.75 -8.6609,-14.8 -1.6,-3.77 -5.5003,-5.5691 -8.9703,-7.1891 -6.2625,-2.1875 -12.844,-3.044 -19.447,-3.0875 z" />
    <path
       id="path54"
       d="m 187.11,172.24 c 2.93,1.72 5.8,3.51 8.79,5.15 0.6,-1.84 1.57,-3.39 2.93,-4.65 2.81,1.99 5.33,4.34 8.13,6.36 4.18,-1.37 7.28,-5.41 11.7,-6.56 -0.06,1.36 -0.19,2.72 -0.22,4.08 5.61,0.06 11.09,-1.36 16.61,-2.2 -0.85,2.44 -5.04,2.55 -4.69,5.46 5.73,0.18 11.44,1.25 16.59,3.84 9.47,3.67 17.73,9.92 24.54,17.38 4.72,6.19 9.67,13.04 9.88,21.15 -1.97,-0.32 -3.88,-0.88 -5.82,-1.32 1.96,11.55 1.86,23.33 1.18,34.99 -0.99,7.18 -2.76,15.02 -8.48,20.03 -1.03,-0.19 -2.02,-0.71 -3.08,-0.63 -2.47,3.77 -3.99,8.11 -6.84,11.63 -6.57,8.84 -16.51,14.33 -26.49,18.49 -6.7,2.55 -13.63,5.19 -20.91,5.13 -12.63,-0.18 -25.38,-2.08 -37.17,-6.72 -9.33,-4.11 -18.58,-8.86 -26.03,-15.96 -4.34,-4.54 -7.71,-9.88 -10.52,-15.47 -2.06,-4.93 -2.94,-11.07 -7.92,-14 -1.06,-1.1 -3.2,-1.52 -3.38,-3.21 0.01,-7.27 -0.03,-14.55 0.65,-21.78 1.24,-9.44 4.83,-18.44 9.51,-26.68 3.69,-6.42 8.37,-12.53 14.96,-16.18 4.67,-3.13 10.28,-4.09 15.47,-6.01 l 0.28,-1.56 c -1.86,-0.77 -3.75,-1.43 -5.58,-2.25 9.27,-2.72 18.95,-2.09 28.46,-1.64 -0.08,-2.54 -1.58,-4.63 -2.55,-6.87 m 12.14,96.62 c -3.06,0.79 -4.86,4.34 -4.01,7.32 1.07,3.63 4.9,5.94 8.54,6.15 -0.04,-0.55 -0.13,-1.65 -0.18,-2.2 -2.73,-1.52 -6.23,-3.37 -5.56,-7.12 1.89,-1.63 4.5,-0.34 6.73,-0.48 0.55,-3.08 -3.31,-3.53 -5.52,-3.67 z"
       fill="#fffbae" />
  </g>
  <g
     aria-label="lui"
     id="text27509"
     style="font-size:200.001px;line-height:1.25;font-family:'TeX Gyre Pagella';-inkscape-font-specification:'TeX Gyre Pagella';letter-spacing:0px;word-spacing:0px;fill:#784421;stroke:#784421;stroke-width:14.00009633;stroke-miterlimit:4;stroke-dasharray:none;stroke-opacity:1"
     transform="translate(-145.42347,260.26718)">
    <path
       d="m 951.6015,111.26677 q 4.00002,1.40001 4.00002,2.60001 0,1.20001 -3.20002,9.00005 -1.80001,3.60002 -1.80001,4.20002 l -2.60001,1 v -1.6 q -2.40002,0 -4.40003,0.2 -2.00001,0.2 -3.80001,0.2 -2.80002,0 -4.40003,-1.20001 -1.4,-1 -1.4,-4.40002 -5.20003,0 -7.80004,-3.80002 -2.60002,-3.80002 -5.40003,-11.40006 -1.40001,-18.000087 -2.00001,-36.800181 -0.4,-19.000096 -0.4,-44.600225 V 11.86627 q 0,-17.4000881 1.4,-29.200148 3.40002,-1.800009 8.60005,-2.400012 0.8,-0.200001 3.60002,-0.600003 2.80001,-0.600003 5.00002,-1.800009 l 0.6,-0.200001 q 1.80001,0 1.80001,2.200011 0,16.0000809 -1.2,48.400244 -0.80001,15.80008 -1.20001,32.200162 0,4.400022 -0.8,12.000061 -0.2,1.600008 -0.4,4.200021 -0.20001,2.600013 -0.20001,6.200031 0,13.000065 3.20002,20.800103 3.20002,7.60004 12.80007,7.60004 z M 932.2014,-13.333857 q -5.20003,0 -6.80004,2.600013 -1.6,2.4000118 -1.6,8.200041 h 2.80001 q 0,0.400002 0.2,0.600003 0.2,0.200001 0.2,0.400002 0,0.400002 -1,1.00000506 -0.80001,0.40000202 -1.40001,0.40000202 V 7.2662463 q 0.6,-0.800004 2.40001,-3.2000161 2.00001,-2.6000131 2.60001,-2.8000141 -0.2,0.600003 -0.8,2.6000131 -0.6,1.8000091 -1.80001,3.4000171 0.2,0 0.80001,0.200001 0.6,0 1.4,0 3.00002,0 3.00002,-1.200006 z m -2.60002,14.6000731 z m -5.00002,47.0002369 q 0.6,1.000005 3.80002,1.000005 -0.6,0.800004 -1.60001,1.400007 -1,0.400002 -1.60001,1.000005 -0.6,0.600003 -0.6,1.800009 0,1.600008 0.8,3.200016 0.80001,1.600008 0.80001,3.800019 h 4.60002 v -6.400032 h -2.40001 q 2.40001,-3.200016 2.40001,-9.000045 0,-1.200006 -0.6,-3.200016 -0.60001,-2.000011 -0.60001,-3.200017 l 1.20001,-5.000025 q 1.40001,-4.600023 1.40001,-9.200046 -0.2,-0.600003 -0.60001,-1.200006 -0.4,-0.800004 -0.8,-1.200006 0,2.800014 -2.40001,2.800014 l -1.40001,-0.400002 q 1.40001,-0.600003 1.80001,-1.800009 0.4,-1.200006 0.4,-3.000015 h 3.00002 v -7.400037 q -1.20001,1.400007 -3.40002,3.400017 -2.00001,1.800009 -2.40001,1.800009 l -0.6,-0.200001 q 3.80001,-4.200021 5.00002,-7.4000376 -2.20001,0 -4.80002,0.6000026 -2.60002,0.400002 -2.60002,2.200012 0,4.600023 1.20001,6.400032 1.20001,1.800009 1.20001,2.00001 0,0.400002 -1.20001,3.200016 -1.20001,2.600013 -1.20001,4.00002 0.40001,-0.200001 1.00001,-0.600003 0.8,-0.600003 1.40001,-0.600003 0.4,0 0.8,0.600003 0.4,0.400002 0.4,0.600003 -0.6,0.600003 -1.40001,2.00001 -0.8,1.400007 -1,2.200011 0,1.200006 1,1.600008 1.20001,0.200001 1.40001,0.400002 -2.20001,0.600003 -2.80001,3.200016 -0.4,2.600014 -0.4,5.80003 1.6,0 2.60001,-0.800004 1,-1.000005 1.40001,-1.000005 l 0.6,0.200001 q -0.6,1.600008 -2.00001,3.600018 -1.20001,2.00001 -1.80001,2.800014 z m 6.40003,14.400072 q -2.80001,0 -4.00002,1.600008 -1.2,1.600008 -1.2,4.800025 0.4,-0.400002 2.00001,-1.400008 1.8,-1.000005 2.40001,-2.200011 0.8,-1.200006 0.8,-2.800014 z m -1.40001,48.400245 q 1.00001,0 2.40002,-4.20002 1.4,-4.20002 1.4,-5.80003 0,-2.000011 -0.6,-2.600014 -0.4,-0.600003 -2.00001,-0.600003 V 77.666601 l -1.20001,-1.200006 q 1.60001,0 1.60001,-7.800039 -2.00001,0 -3.80002,2.200011 -1.80001,2.00001 -1.80001,4.200021 0,0.200001 0.60001,0.800004 0.8,0.400002 0.8,0.600003 l -1.2,1.200006 v 8.600043 q 1.4,0.400002 1.4,2.600013 0,1.400007 -0.6,4.400022 -0.8,2.00001 -0.8,4.400023 0,2.200011 2.00001,4.200018 2.00001,2.00001 2.00001,3.40002 0,0.6 -1.20001,2.20001 -1.20001,1.40001 -1.60001,2.40001 0.2,0 1.20001,0.60001 1,0.6 1.4,0.6 z m 16.00008,8.60004 q 0.20001,-0.2 0.80001,-0.8 0.8,-0.6 0.8,-1.40001 0,-0.4 -3.20001,-2.00001 -3.20002,-1.60001 -4.60003,-2.20001 -0.6,0 -2.00001,0.8 -1.4,0.60001 -3.00001,0.60001 0.6,-0.2 1.40001,-1.20001 1,-1 1.2,-1.2 0,-1.40001 -0.8,-2.80002 -0.60001,-1.40001 -1.80001,-2.00001 -0.6,0 -2.00001,2.40001 -1.20001,2.20001 -1.60001,3.40002 0,4.20002 5.00003,6.60003 5.00002,2.40002 9.20004,2.40002 1.20001,0 2.00001,-1.60001 z"
       style="font-family:'Cabin Sketch';-inkscape-font-specification:'Cabin Sketch';stroke:#784421;stroke-width:14.00009633;stroke-miterlimit:4;stroke-dasharray:none;stroke-opacity:1"
       id="path27511" />
    <path
       d="m 1051.0016,33.266377 q 1,0 3.0001,37.200188 2,37.000185 2,49.200245 -1,3.60002 -4.8001,4.60003 -3.8,1 -10,1 -4.2,0 -5.6,-1.40001 -1.4,-1.4 -1.4,-5.40002 l 0.2,-5.80003 q -0.8,0.6 -4.0001,4.40002 -3.2,3.60002 -9.2,6.20003 -6,2.40001 -16.4001,2.40001 -14.60007,0 -22.4001,-12.20006 -7.80004,-12.40006 -9.00005,-29.600148 l -1.40001,-14.800074 v -2.600014 q 2.40002,-12.00006 2.40002,-13.400067 0,-2.400012 -0.60001,-7.200036 l -0.4,-6.400033 v -2.00001 q 0,-3.000015 1.00001,-6.00003 1.2,-3.200016 3.80001,-3.200016 l 12.40007,1.400007 q 1.4,0 2.00001,4.200021 0.8,4.00002 0.8,7.80004 0,4.400022 -0.4,8.800044 l 1.2,1.200006 -0.2,22.800115 q 0,12.00006 1.60001,18.600093 1.60001,6.600034 6.40004,10.000052 4.8,3.20001 14.6001,3.20001 7.6,0 12.2,-1.4 4.6001,-1.40001 7.4001,-6.200033 l 0.2,-7.200037 q 0,-7.200036 -0.8,-21.600108 -1,-12.000061 -1,-21.80011 0,-3.800019 0,-7.800039 0.2,-4.200022 0.4,-5.80003 l 2.2,-1.200006 z m -71.60032,20.000101 q 0,2.00001 1.20001,2.200011 0.6,-1.800009 2.00001,-3.200016 1.6,-1.600008 1.80001,-1.800009 2.00001,-2.00001 2.80001,-3.200016 1,-1.400007 1,-3.400017 0,-4.000021 -1,-4.000021 -1.00001,-0.200001 -1.00001,-0.600003 0,-0.800004 0.80001,-3.000015 0,-2.00001 -7.60004,-2.00001 v 7.600039 l 1.00001,4.600023 q 0,0.800004 -0.60001,2.600013 -0.4,1.600008 -0.4,3.200016 z m 60.60032,-5.800029 q 3.4,0.800004 3.4,1.600008 0,0.400002 -1.8,2.200011 -1.6,1.800009 -1.6,3.600018 0,0.400002 0.2,1.200006 0.4,0.600003 1,0.600003 4.4,-2.600013 5.2,-4.800024 1,-2.400012 1,-9.200046 0,-2.200011 -0.6,-3.400018 -0.6,-1.200006 -2.6,-1.200006 l -3,0.200001 z m -58.00031,9.200046 q 4.20002,0 5.40003,-0.600003 1.40001,-0.600003 1.40001,-3.600018 0,-0.800004 -0.80001,-3.200016 -5.40002,4.600023 -6.00003,7.400037 z m 61.60031,6.00003 q -1,0 -2.4,0.800004 -1.4,0.800004 -1.4,1.200006 0,1.000005 0.6,2.200011 0.6,1.200006 1.4,1.200006 2.4,0 4.6,-4.400022 2.2,-4.400022 2.2,-7.000035 0,-0.600003 -0.6,-1.400007 -0.4,-0.800004 -0.8,-0.800004 l -6,6.00003 -0.2,0.400002 q 0,0.800004 0.8,1.400007 0.8,0.400002 1.8,0.400002 z m -56.60028,-4.600023 q -3.80002,0 -5.60003,0.400002 -1.60001,0.400002 -2.40001,2.200011 -0.80001,1.800009 -0.80001,5.800029 3.20002,-2.200011 6.00003,-4.600023 2.80002,-2.600013 2.80002,-3.800019 z m 2.40001,3.400017 q 0,-0.400002 -0.2,-0.400002 -1.00001,0 -6.40003,4.200021 -2.60002,2.200011 -3.40002,2.600013 v 1.200007 l 7.00004,1.000005 q 0.6,-0.200001 1.4,-0.600003 1.00001,-0.600003 1.60001,-0.600003 z m 52.80027,11.80006 q 0,0.400002 0.6,1.800009 0.8,1.200006 2.2,1.200006 -2.8,0 -3.4,2.600013 -0.6,2.600013 -0.6,6.600033 3,0 5,-2.400012 2.2,-2.400012 2.2,-5.400027 h -2.2 q 1.6,-1.200006 1.8,-4.00002 0.2,-3.000015 0.2,-7.000036 -2.6,0 -4.2,2.000011 -1.6,2.00001 -1.6,4.600023 z m -64.40033,-0.600003 q 0,7.400037 1.60001,7.400037 l 6.40003,-6.00003 v -1.400007 z m 11.60006,1.400007 q -5.20003,4.600023 -11.20006,12.200061 h 11.20006 q 0.2,0 0.6,-1.200006 0.60001,-1.400007 0.60001,-2.400012 0,-2.400012 -0.60001,-4.400022 -0.2,-0.800004 -0.4,-1.800009 -0.2,-1.000005 -0.2,-2.400012 z m 54.00027,16.200081 q 3.6,0 4.6,-0.800004 1,-1.000005 1,-4.800024 -2,0 -3.8,1.800009 -1.8,1.600008 -1.8,3.800019 z m -64.00032,2.00001 q 0,3.400017 0.4,5.000026 0.60001,1.600008 3.00002,1.600008 3.20001,0 6.00003,-1.200006 3.00001,-1.400008 3.00001,-4.000021 0,-1.200006 -0.4,-1.800009 -0.4,-0.600003 -2.00001,-0.600003 -0.6,0.200001 -2.40001,2.400012 -1.80001,2.200011 -2.60001,3.80002 l -2.40002,-1.200007 q 4.20002,-4.800024 4.80003,-7.400037 -1.40001,0.200001 -3.60002,0.200001 -2.00001,0 -3.00002,0.600003 -0.8,0.600003 -0.8,2.600013 z m 64.20032,0.200001 q -1.4,0 -1.4,2.400012 v 1.400007 q 0,2.200012 1.4,2.400013 3.8,-3.80002 3.8,-4.200022 0,-0.600003 -1.4,-1.200006 -1.4,-0.800004 -2.4,-0.800004 z m 5.2,12.400065 q 1,0 1,-2.60002 -0.2,-1 -0.8,-2.400007 -0.6,-1.400007 -0.8,-1.400007 -1.6,0 -3,1.400007 -1.4,1.400007 -1.6,1.400007 0,0.8 0.4,1.60001 0.4,0.6 1,0.8 -1.8,2.80002 -4.4,4.60002 -2.4,1.80001 -3.4,1.80001 0,1.20001 0.6,1.60001 0.6,0.4 0.8,0.60001 l 7.4,-5.00003 v -3.20002 q 0.8,0 1.6,0.40001 0.8,0.4 1.2,0.4 z m -60.80028,8.60004 q 4.80003,1.40001 6.20003,2.40001 l 7.40005,-3.60001 v -1.20001 h -2.40002 v -2.60001 h -11.20006 v -1.40001 l 2.60002,0.2 q 4.80002,0 4.80002,-2.40001 0,-0.60001 -0.4,-1.40001 -0.4,-0.8 -0.80001,-1.20001 l -3.60001,2.60002 q 0,-1.20001 0.6,-3.00002 0.6,-1.80001 0.6,-3.200013 -0.6,0.400002 -3.60002,1.200006 -3.00001,0.600007 -4.80002,1.400007 -1.60001,0.8 -1.60001,2.40001 l 0.2,1.20001 z m 56.60028,1.40001 q 5.2,0 5.2,-3.00002 0,-1.80001 -0.4,-2.60001 -0.2,-1.00001 -1.2,-1.00001 -2.2,0 -4.6,2.20002 -2.2,2.20001 -2.4,4.20002 z m -12.0001,-3.80002 -2.6,-0.2 q -2.2,0 -3.4,0.2 -1.2,0.2 -2.8,1.20001 h -18.4001 q -0.8,0 -4,2.00001 -3.00002,1.8 -4.60003,3.00001 3.00001,2.40001 11.60003,2.40001 1.8,0 3,-0.4 1.2,-0.4 2.6001,-2.00001 v 2.80001 q 5.8,0 8.4,-1.2 2.8,-1.20001 5.2,-5.40003 l 1.4,1.20001 z m 16.0001,7.20004 v -1.00001 l -8.4,1.40001 1.8,1.80001 z"
       style="font-family:'Cabin Sketch';-inkscape-font-specification:'Cabin Sketch';stroke:#784421;stroke-width:14.00009633;stroke-miterlimit:4;stroke-dasharray:none;stroke-opacity:1"
       id="path27513" />
    <path
       d="m 1093.4017,-10.533843 q 0.2,-0.400002 4.2,-0.800004 4,-0.600003 6.8,-0.600003 1.6,0 3.8001,1.000005 2.4,0.800004 2.4,1.6000078 V 5.4662373 q 0,2.6000131 -3.6001,2.6000131 -4.8,0 -10.6,-0.8000041 -5.6,-0.800004 -5.6,-3.0000151 V -8.3338322 Z m 1.8,4.8000239 q 0,2.00001 0.8,4.2000211 0.8,2.0000101 2.6,2.0000101 3.6,0 5,-0.60000302 1.6,-0.60000303 1.6,-3.00001508 0,-1.0000051 -0.8,-2.6000131 -0.6,0.200001 -1.6,0.800004 -0.8,0.600003 -2,0.600003 l 1.4,-1.400007 z m 0.6,127.0006391 q -0.4,-1.40001 -1.8,-3.40002 -1.4,-2.00001 -1.8,-3.80002 -2.8,-11.60005 -3.6,-24.200118 -0.8,-12.800064 -0.8,-30.200152 v -6.400032 q 0,-12.600063 2.2,-19.200097 2.2,-6.600033 9.6,-6.600033 7.4,0 10.0001,6.400032 2.8,6.200031 2.8,16.200082 0,11.000055 -1.6,24.200122 -1.4,10.200051 -1.4,18.00009 0,5.000026 0.8,14.600076 0.2,2.40001 0.4,5.80003 0.2,3.40001 0.2,8.00004 0,3.20001 -2.6,3.20001 -2.4001,-0.4 -6.2001,-1.2 -3.6,-0.80001 -6.2,-1.40001 z m 2,-81.200409 q 8,0 8,-2.400012 0,-2.400012 -0.6,-3.200016 -0.4,-0.800004 -1.8,-0.800004 -0.4,0 -1.8,0.800004 -1.4,0.600003 -2,0.600003 -0.4,0 -1,-0.600003 -0.6,-0.800004 -1.6,-0.800004 -1.4,0 -2.2,0.600003 -0.6,0.400002 -1.4,2.00001 1.6,1.600008 3,1.600008 l 0.6,-0.200001 -1.2,2.400012 z m -4.6,5.80003 q 0,0.400002 0.4,1.000005 0.6,0.400002 1,0.400002 1.8,0 4.4,-2.600013 2.6,-2.800014 3.2,-3.400017 h -0.8 q -1.6,0 -4.8,1.000005 -3.2,1.000005 -3.2,3.400017 z m 13,-4.200021 q -5.2,0 -10.4,9.200046 2.8,-1.000005 6.4,-1.000005 1.8,0 2.6,-0.400002 0.8,-0.400002 1,-2.00001 0.4,-1.800009 0.4,-5.800029 z m -12.8,16.600083 q 0,0.400002 0.4,1.000005 0.6,0.400002 0.8,0.400002 4.4,-2.400012 8.6,-7.200036 l -1.8,-0.200001 q -3.2,0 -5.6,1.600008 -2.4,1.400007 -2.4,4.400022 z m 12.4,-4.600023 q -5.4,2.800014 -7.4,7.200036 l 1.8,0.200001 q 1.4,0 3.4,-0.200001 2.2,-0.400002 2.2,-1.200006 z m -7.4,18.600094 q 9.0001,0 9.0001,-8.800045 h -1.6001 l -7.4,7.400038 z m 0,-7.80004 q -4,0 -4,3.400017 l 0.2,2.000011 5,-5.200027 z m 2.6,9.80005 q -2.6,0 -5,1.600008 -2.4,1.600008 -2.4,4.00002 2.2,0 4.8,-1.600008 2.6,-1.800009 2.6,-4.00002 z m 3.4,1.400007 q -0.8,0.400002 -4.4,3.600018 -3.4,3.200016 -5.4,5.200026 h 9.8 q 1.2,0 1.4,-2.400012 0.4,-2.600013 0.4,-6.400032 z m -9.8,13.600068 q 0,2.600013 1.2,2.600013 l 6.4,-5.000025 v -1.200006 q -7.6,1.000005 -7.6,3.600018 z m 1.2,7.80004 q 5,0 6.8,-2.000011 2,-2.00001 2,-7.000035 h -1.4 l -7.4,7.400037 z m 0,4.600021 q 0,0.6 0.4,1.40001 0.4,0.6 0.8,1 l 5.2,-4.80002 -2,-0.200001 q -3.8,0 -4.4,2.600011 z m 0,11.20006 q 0.8,2.20001 3.2,2.80001 2.6,0.4 6,0.4 0,-1.8 -1.2,-3.00001 -1,-1.40001 -1,-1.60001 0,0 1.2,-0.6 1.2,-0.60001 1.2,-9.20005 h -3 q -0.4,0 -3,3.20002 -2.4,3.20001 -2.4,4.00002 v 0.2 h 5.4 z"
       style="font-family:'Cabin Sketch';-inkscape-font-specification:'Cabin Sketch';stroke:#784421;stroke-width:14.00009633;stroke-miterlimit:4;stroke-dasharray:none;stroke-opacity:1"
       id="path27515" />
  </g>
  <g
     aria-label="lui"
     id="text2854"
     style="font-size:200.001px;line-height:1.25;font-family:'TeX Gyre Pagella';-inkscape-font-specification:'TeX Gyre Pagella';letter-spacing:0px;word-spacing:0px;fill:#ffffff;stroke-width:0.750005">
    <path
       d="m 806.36382,372.44602 q 4.00002,1.4 4.00002,2.60001 0,1.2 -3.20001,9.00004 -1.80001,3.60002 -1.80001,4.20002 l -2.60001,1.00001 v -1.60001 q -2.40002,0 -4.40003,0.2 -2.00001,0.2 -3.80002,0.2 -2.80001,0 -4.40002,-1.2 -1.4,-1.00001 -1.4,-4.40002 -5.20003,0 -7.80004,-3.80002 -2.60002,-3.80002 -5.40003,-11.40006 -1.40001,-18.00009 -2.00001,-36.80019 -0.4,-19.00009 -0.4,-44.60022 v -12.80007 q 0,-17.40008 1.4,-29.20014 3.40002,-1.80001 8.60005,-2.40001 0.8,-0.20001 3.60002,-0.60001 2.80001,-0.6 5.00002,-1.80001 l 0.6,-0.2 q 1.80001,0 1.80001,2.20001 0,16.00008 -1.2,48.40025 -0.80001,15.80008 -1.20001,32.20016 0,4.40002 -0.8,12.00006 -0.2,1.60001 -0.40001,4.20002 -0.2,2.60001 -0.2,6.20003 0,13.00007 3.20002,20.80011 3.20002,7.60004 12.80006,7.60004 z M 786.96373,247.84539 q -5.20003,0 -6.80004,2.60001 -1.60001,2.40001 -1.60001,8.20004 h 2.80002 q 0,0.4 0.2,0.60001 0.2,0.2 0.2,0.4 0,0.4 -1,1 -0.80001,0.4 -1.40001,0.4 v 7.40004 q 0.6,-0.8 2.40001,-3.20001 2.00001,-2.60002 2.60001,-2.80002 -0.2,0.6 -0.8,2.60001 -0.6,1.80001 -1.80001,3.40002 0.2,0 0.8,0.2 0.60001,0 1.40001,0 3.00002,0 3.00002,-1.2 z m -2.60002,14.60007 z m -5.00002,47.00024 q 0.6,1 3.80002,1 -0.60001,0.80001 -1.60001,1.40001 -1.00001,0.4 -1.60001,1 -0.6,0.60001 -0.6,1.80001 0,1.60001 0.8,3.20002 0.80001,1.60001 0.80001,3.80002 h 4.60002 v -6.40003 h -2.40001 q 2.40001,-3.20002 2.40001,-9.00005 0,-1.2 -0.6,-3.20001 -0.60001,-2.00001 -0.60001,-3.20002 l 1.20001,-5.00003 q 1.40001,-4.60002 1.40001,-9.20004 -0.2,-0.60001 -0.60001,-1.20001 -0.4,-0.8 -0.8,-1.2 0,2.80001 -2.40001,2.80001 l -1.40001,-0.4 q 1.40001,-0.60001 1.80001,-1.80001 0.4,-1.20001 0.4,-3.00002 h 3.00002 v -7.40003 q -1.20001,1.4 -3.40002,3.40001 -2.00001,1.80001 -2.40001,1.80001 l -0.60001,-0.2 q 3.80002,-4.20002 5.00003,-7.40004 -2.20001,0 -4.80002,0.60001 -2.60002,0.4 -2.60002,2.20001 0,4.60002 1.20001,6.40003 1.2,1.80001 1.2,2.00001 0,0.4 -1.2,3.20002 -1.20001,2.60001 -1.20001,4.00002 0.4,-0.2 1.00001,-0.60001 0.8,-0.6 1.4,-0.6 0.40001,0 0.80001,0.6 0.4,0.40001 0.4,0.60001 -0.6,0.6 -1.40001,2.00001 -0.8,1.4 -1,2.20001 0,1.2 1,1.60001 1.20001,0.2 1.40001,0.4 -2.20001,0.6 -2.80001,3.20001 -0.40001,2.60002 -0.40001,5.80003 1.60001,0 2.60002,-0.8 1,-1.00001 1.4,-1.00001 l 0.60001,0.20001 q -0.60001,1.6 -2.00001,3.60001 -1.20001,2.00001 -1.80001,2.80002 z m 6.40003,14.40007 q -2.80001,0 -4.00002,1.60001 -1.20001,1.60001 -1.20001,4.80002 0.40001,-0.4 2.00001,-1.4 1.80001,-1.00001 2.40002,-2.20002 0.8,-1.2 0.8,-2.80001 z m -1.40001,48.40024 q 1.00001,0 2.40002,-4.20002 1.4,-4.20002 1.4,-5.80003 0,-2.00001 -0.6,-2.60001 -0.4,-0.6 -2.00001,-0.6 v -20.2001 l -1.20001,-1.20001 q 1.60001,0 1.60001,-7.80004 -2.00001,0 -3.80002,2.20001 -1.80001,2.00001 -1.80001,4.20002 0,0.2 0.60001,0.80001 0.8,0.4 0.8,0.6 l -1.20001,1.20001 v 8.60004 q 1.40001,0.4 1.40001,2.60001 0,1.40001 -0.6,4.40002 -0.80001,2.00001 -0.80001,4.40003 0,2.20001 2.00001,4.20002 2.00001,2.00001 2.00001,3.40001 0,0.60001 -1.2,2.20002 -1.20001,1.4 -1.60001,2.40001 0.2,0 1.20001,0.6 1,0.6 1.4,0.6 z m 16.00008,8.60005 q 0.20001,-0.2 0.80001,-0.80001 0.8,-0.6 0.8,-1.4 0,-0.40001 -3.20001,-2.00001 -3.20002,-1.60001 -4.60003,-2.20001 -0.6,0 -2.00001,0.8 -1.4,0.6 -3.00001,0.6 0.6,-0.2 1.4,-1.2 1.00001,-1.00001 1.20001,-1.20001 0,-1.40001 -0.8,-2.80001 -0.60001,-1.40001 -1.80001,-2.00001 -0.60001,0 -2.00001,2.40001 -1.20001,2.20001 -1.60001,3.40002 0,4.20002 5.00002,6.60003 5.00003,2.40001 9.20005,2.40001 1.20001,0 2.00001,-1.60001 z"
       style="font-family:'Cabin Sketch';-inkscape-font-specification:'Cabin Sketch'"
       id="path55164" />
    <path
       d="m 905.76397,294.44562 q 1.00001,0 3.00002,37.20019 2.00001,37.00019 2.00001,49.20025 -1.00001,3.60002 -4.80003,4.60002 -3.80002,1.00001 -10.00005,1.00001 -4.20002,0 -5.60003,-1.40001 -1.4,-1.40001 -1.4,-5.40003 l 0.2,-5.80003 q -0.80001,0.60001 -4.00002,4.40002 -3.20002,3.60002 -9.20005,6.20004 -6.00003,2.40001 -16.40008,2.40001 -14.60008,0 -22.40012,-12.20006 -7.80003,-12.40007 -9.00004,-29.60015 l -1.40001,-14.80008 v -2.60001 q 2.40001,-12.00006 2.40001,-13.40007 0,-2.40001 -0.6,-7.20003 l -0.4,-6.40004 v -2.00001 q 0,-3.00001 1,-6.00003 1.20001,-3.20001 3.80002,-3.20001 l 12.40007,1.4 q 1.4,0 2.00001,4.20003 0.8,4.00002 0.8,7.80003 0,4.40003 -0.4,8.80005 l 1.2,1.2 -0.2,22.80012 q 0,12.00006 1.60001,18.60009 1.60001,6.60004 6.40003,10.00005 4.80003,3.20002 14.60008,3.20002 7.60004,0 12.20006,-1.40001 4.60002,-1.4 7.40004,-6.20003 l 0.2,-7.20003 q 0,-7.20004 -0.80001,-21.60011 -1,-12.00006 -1,-21.80011 0,-3.80002 0,-7.80004 0.2,-4.20002 0.4,-5.80003 l 2.20001,-1.20001 z m -71.60036,20.0001 q 0,2.00001 1.20001,2.20001 0.6,-1.80001 2.00001,-3.20001 1.6,-1.60001 1.8,-1.80001 2.00001,-2.00001 2.80002,-3.20002 1,-1.4 1,-3.40001 0,-4.00002 -1,-4.00002 -1.00001,-0.20001 -1.00001,-0.60001 0,-0.8 0.80001,-3.00001 0,-2.00001 -7.60004,-2.00001 v 7.60004 l 1,4.60002 q 0,0.8 -0.6,2.60001 -0.4,1.60001 -0.4,3.20002 z m 60.6003,-5.80003 q 3.40002,0.80001 3.40002,1.60001 0,0.4 -1.80001,2.20001 -1.60001,1.80001 -1.60001,3.60002 0,0.4 0.20001,1.20001 0.4,0.6 1,0.6 4.40002,-2.60001 5.20003,-4.80002 1,-2.40002 1,-9.20005 0,-2.20001 -0.6,-3.40002 -0.6,-1.2 -2.60001,-1.2 l -3.00002,0.2 z m -58.00029,9.20005 q 4.20002,0 5.40003,-0.6 1.40001,-0.60001 1.40001,-3.60002 0,-0.80001 -0.80001,-3.20002 -5.40002,4.60003 -6.00003,7.40004 z m 61.60031,6.00003 q -1,0 -2.40001,0.8 -1.40001,0.80001 -1.40001,1.20001 0,1.00001 0.60001,2.20001 0.6,1.20001 1.4,1.20001 2.40002,0 4.60003,-4.40002 2.20001,-4.40003 2.20001,-7.00004 0,-0.6 -0.60001,-1.40001 -0.4,-0.8 -0.8,-0.8 l -6.00003,6.00003 -0.2,0.4 q 0,0.80001 0.8,1.40001 0.80001,0.4 1.80001,0.4 z m -56.60028,-4.60002 q -3.80002,0 -5.60003,0.4 -1.60001,0.4 -2.40001,2.20001 -0.80001,1.80001 -0.80001,5.80003 3.20002,-2.20001 6.00003,-4.60002 2.80002,-2.60002 2.80002,-3.80002 z m 2.40001,3.40001 q 0,-0.4 -0.2,-0.4 -1.00001,0 -6.40003,4.20002 -2.60002,2.20001 -3.40002,2.60002 v 1.2 l 7.00003,1.00001 q 0.60001,-0.2 1.40001,-0.60001 1.00001,-0.6 1.60001,-0.6 z m 52.80027,11.80006 q 0,0.40001 0.6,1.80001 0.8,1.20001 2.20001,1.20001 -2.80001,0 -3.40002,2.60001 -0.6,2.60001 -0.6,6.60004 3.00001,0 5.00002,-2.40002 2.20002,-2.40001 2.20002,-5.40002 h -2.20002 q 1.60001,-1.20001 1.80001,-4.00002 0.2,-3.00002 0.2,-7.00004 -2.60001,0 -4.20002,2.00001 -1.6,2.00001 -1.6,4.60002 z m -64.40033,-0.6 q 0,7.40004 1.60001,7.40004 l 6.40003,-6.00003 v -1.40001 z m 11.60006,1.40001 q -5.20003,4.60002 -11.20006,12.20006 h 11.20006 q 0.2,0 0.6,-1.20001 0.60001,-1.4 0.60001,-2.40001 0,-2.40001 -0.60001,-4.40002 -0.2,-0.80001 -0.4,-1.80001 -0.2,-1.00001 -0.2,-2.40001 z m 54.00027,16.20008 q 3.60002,0 4.60002,-0.8 1.00001,-1.00001 1.00001,-4.80003 -2.00001,0 -3.80002,1.80001 -1.80001,1.60001 -1.80001,3.80002 z m -64.00032,2.00001 q 0,3.40002 0.4,5.00002 0.6,1.60001 3.00002,1.60001 3.20001,0 6.00003,-1.2 3.00001,-1.40001 3.00001,-4.00002 0,-1.20001 -0.4,-1.80001 -0.4,-0.60001 -2.00001,-0.60001 -0.6,0.20001 -2.40001,2.40002 -1.80001,2.20001 -2.60002,3.80002 l -2.40001,-1.20001 q 4.20002,-4.80002 4.80003,-7.40004 -1.40001,0.2 -3.60002,0.2 -2.00001,0 -3.00002,0.60001 -0.8,0.6 -0.8,2.60001 z m 64.20032,0.2 q -1.4,0 -1.4,2.40001 v 1.40001 q 0,2.20001 1.4,2.40001 3.80002,-3.80002 3.80002,-4.20002 0,-0.6 -1.40001,-1.20001 -1.4,-0.8 -2.40001,-0.8 z m 5.20003,12.40006 q 1,0 1,-2.60001 -0.2,-1.00001 -0.8,-2.40001 -0.6,-1.40001 -0.8,-1.40001 -1.60001,0 -3.00002,1.40001 -1.40001,1.4 -1.60001,1.4 0,0.80001 0.4,1.60001 0.40001,0.60001 1.00001,0.80001 -1.80001,2.80001 -4.40002,4.60002 -2.40001,1.80001 -3.40002,1.80001 0,1.20001 0.6,1.60001 0.60001,0.4 0.80001,0.6 l 7.40003,-5.00003 v -3.20001 q 0.80001,0 1.60001,0.4 0.80001,0.4 1.20001,0.4 z m -60.80031,8.60005 q 4.80003,1.4 6.20003,2.40001 l 7.40004,-3.60002 v -1.20001 h -2.40001 V 369.646 h -11.20006 v -1.40001 l 2.60002,0.2 q 4.80002,0 4.80002,-2.40001 0,-0.6 -0.4,-1.4 -0.4,-0.80001 -0.80001,-1.20001 l -3.60001,2.60001 q 0,-1.2 0.6,-3.00001 0.6,-1.80001 0.6,-3.20002 -0.6,0.4 -3.60002,1.20001 -3.00001,0.6 -4.80002,1.4 -1.60001,0.80001 -1.60001,2.40002 l 0.2,1.2 z m 56.60029,1.4 q 5.20002,0 5.20002,-3.00001 0,-1.80001 -0.4,-2.60002 -0.2,-1 -1.2,-1 -2.20002,0 -4.60003,2.20001 -2.20001,2.20001 -2.40001,4.20002 z m -12.00006,-3.80002 -2.60002,-0.2 q -2.20001,0 -3.40001,0.2 -1.20001,0.20001 -2.80002,1.20001 h -18.40009 q -0.8,0 -4.00002,2.00001 -3.00001,1.80001 -4.60002,3.00002 3.00001,2.40001 11.60006,2.40001 1.8,0 3.00001,-0.4 1.20001,-0.40001 2.60001,-2.00001 v 2.80001 q 5.80003,0 8.40005,-1.20001 2.80001,-1.2 5.20002,-5.40002 l 1.40001,1.2 z m 16.00008,7.20004 v -1 l -8.40004,1.4 1.8,1.80001 z"
       style="font-family:'Cabin Sketch';-inkscape-font-specification:'Cabin Sketch'"
       id="path55166" />
    <path
       d="m 948.16401,250.6454 q 0.2,-0.4 4.20002,-0.8 4.00002,-0.60001 6.80004,-0.60001 1.6,0 3.80001,1.00001 2.40002,0.8 2.40002,1.60001 v 14.80007 q 0,2.60002 -3.60002,2.60002 -4.80003,0 -10.60006,-0.80001 -5.60002,-0.8 -5.60002,-3.00001 v -12.60007 z m 1.80001,4.80003 q 0,2.00001 0.8,4.20002 0.80001,2.00001 2.60002,2.00001 3.60001,0 5.00002,-0.60001 1.60001,-0.6 1.60001,-3.00001 0,-1.00001 -0.8,-2.60001 -0.60001,0.2 -1.60001,0.8 -0.80001,0.6 -2.00001,0.6 l 1.4,-1.4 z m 0.6,127.00064 q -0.4,-1.40001 -1.80001,-3.40002 -1.4,-2.00001 -1.80001,-3.80002 -2.80001,-11.60006 -3.60001,-24.20012 -0.80001,-12.80007 -0.80001,-30.20015 v -6.40004 q 0,-12.60006 2.20001,-19.20009 2.20001,-6.60004 9.60005,-6.60004 7.40004,0 10.00005,6.40004 2.80002,6.20003 2.80002,16.20008 0,11.00005 -1.60001,24.20012 -1.40001,10.20005 -1.40001,18.00009 0,5.00002 0.8,14.60007 0.20001,2.40001 0.40001,5.80003 0.2,3.40002 0.2,8.00004 0,3.20002 -2.60002,3.20002 -2.40001,-0.4 -6.20003,-1.20001 -3.60002,-0.8 -6.20003,-1.4 z m 2.00001,-81.20041 q 8.00004,0 8.00004,-2.40002 0,-2.40001 -0.6,-3.20001 -0.4,-0.80001 -1.80001,-0.80001 -0.4,0 -1.80001,0.80001 -1.40001,0.6 -2.00001,0.6 -0.4,0 -1,-0.6 -0.60001,-0.80001 -1.60001,-0.80001 -1.40001,0 -2.20001,0.60001 -0.60001,0.4 -1.40001,2.00001 1.60001,1.60001 3.00001,1.60001 l 0.60001,-0.20001 -1.20001,2.40002 z m -4.60002,5.80003 q 0,0.4 0.4,1 0.6,0.4 1.00001,0.4 1.8,0 4.40002,-2.60001 2.60001,-2.80001 3.20001,-3.40002 h -0.8 q -1.60001,0 -4.80002,1.00001 -3.20002,1 -3.20002,3.40001 z m 13.00006,-4.20003 q -5.20002,0 -10.40005,9.20005 2.80002,-1 6.40003,-1 1.80001,0 2.60002,-0.40001 0.8,-0.4 1,-2.00001 0.4,-1.80001 0.4,-5.80003 z m -12.80006,16.60009 q 0,0.4 0.4,1 0.6,0.40001 0.80001,0.40001 4.40002,-2.40002 8.60004,-7.20004 l -1.80001,-0.2 q -3.20002,0 -5.60003,1.60001 -2.40001,1.4 -2.40001,4.40002 z m 12.40006,-4.60003 q -5.40002,2.80002 -7.40004,7.20004 l 1.80001,0.2 q 1.40001,0 3.40002,-0.2 2.20001,-0.4 2.20001,-1.2 z m -7.40004,18.6001 q 9.00005,0 9.00005,-8.80005 h -1.60001 l -7.40004,7.40004 z m 0,-7.80004 q -4.00002,0 -4.00002,3.40002 l 0.20001,2.00001 5.00002,-5.20003 z m 2.60002,9.80005 q -2.60002,0 -5.00003,1.60001 -2.40001,1.6 -2.40001,4.00002 2.20001,0 4.80002,-1.60001 2.60002,-1.80001 2.60002,-4.00002 z m 3.40002,1.40001 q -0.80001,0.4 -4.40003,3.60001 -3.40001,3.20002 -5.40002,5.20003 h 9.80005 q 1.2,0 1.4,-2.40001 0.4,-2.60002 0.4,-6.40003 z m -9.80005,13.60006 q 0,2.60002 1.2,2.60002 l 6.40003,-5.00003 v -1.2 q -7.60003,1 -7.60003,3.60001 z m 1.2,7.80004 q 5.00003,0 6.80004,-2.00001 2.00001,-2.00001 2.00001,-7.00003 h -1.40001 l -7.40004,7.40004 z m 0,4.60003 q 0,0.6 0.4,1.4 0.40001,0.60001 0.80001,1.00001 l 5.20002,-4.80003 -2.00001,-0.2 q -3.80002,0 -4.40002,2.60002 z m 0,11.20005 q 0.80001,2.20001 3.20002,2.80002 2.60001,0.4 6.00003,0.4 0,-1.80001 -1.20001,-3.00002 -1,-1.4 -1,-1.6 0,0 1.2,-0.60001 1.20001,-0.6 1.20001,-9.20004 h -3.00002 q -0.4,0 -3.00001,3.20001 -2.40001,3.20002 -2.40001,4.00002 v 0.2 h 5.40002 z"
       style="font-family:'Cabin Sketch';-inkscape-font-specification:'Cabin Sketch'"
       id="path55168" />
  </g>
</svg>
